SplineFontDB: 3.0
FontName: fontello
FullName: fontello
FamilyName: fontello
Weight: Medium
Copyright: Copyright (C) 2012 by original authors @ fontello.com
Version: 001.000
ItalicAngle: 0
UnderlinePosition: -100
UnderlineWidth: 50
Ascent: 850
Descent: 150
InvalidEm: 0
sfntRevision: 0x00010000
LayerCount: 2
Layer: 0 1 "Back" 1
Layer: 1 1 "Fore" 0
XUID: [1021 519 32151622 2962318]
FSType: 0
OS2Version: 1
OS2_WeightWidthSlopeOnly: 0
OS2_UseTypoMetrics: 1
CreationTime: 1362328125
ModificationTime: 1494576935
PfmFamily: 17
TTFWeight: 500
TTFWidth: 5
LineGap: 90
VLineGap: 0
Panose: 2 0 6 3 0 0 0 0 0 0
OS2TypoAscent: 0
OS2TypoAOffset: 1
OS2TypoDescent: 0
OS2TypoDOffset: 1
OS2TypoLinegap: 90
OS2WinAscent: -1
OS2WinAOffset: 1
OS2WinDescent: 0
OS2WinDOffset: 1
HheadAscent: 0
HheadAOffset: 1
HheadDescent: 0
HheadDOffset: 1
OS2SubXSize: 650
OS2SubYSize: 699
OS2SubXOff: 0
OS2SubYOff: 140
OS2SupXSize: 650
OS2SupYSize: 699
OS2SupXOff: 0
OS2SupYOff: 479
OS2StrikeYSize: 49
OS2StrikeYPos: 258
OS2Vendor: 'PfEd'
OS2CodePages: 80000001.00000000
OS2UnicodeRanges: 00000001.1200a020.00000000.00000000
DEI: 91125
TtTable: prep
MPPEM
PUSHW_1
 200
GT
IF
PUSHB_2
 1
 1
INSTCTRL
EIF
PUSHW_2
 2048
 2048
MUL
DUP
PUSHB_1
 1
SWAP
WCVTP
DUP
PUSHB_1
 3
SWAP
WCVTF
PUSHB_3
 4
 40
 9
RCVT
GT
WCVTP
PUSHB_4
 10
 13
 6
 4
CALL
PUSHB_2
 6
 1
WCVTP
PUSHB_2
 36
 1
GETINFO
LTEQ
IF
PUSHB_1
 64
GETINFO
IF
PUSHB_2
 6
 3
WCVTP
PUSHB_2
 38
 1
GETINFO
LTEQ
IF
PUSHW_1
 1024
GETINFO
IF
PUSHB_2
 6
 1
WCVTP
EIF
EIF
EIF
EIF
PUSHW_1
 511
SCANCTRL
PUSHB_1
 4
SCANTYPE
PUSHB_2
 5
 0
WCVTP
EndTTInstrs
TtTable: fpgm
PUSHB_1
 0
FDEF
PUSHB_1
 32
ADD
FLOOR
ENDF
PUSHB_1
 1
FDEF
DUP
ABS
DUP
PUSHB_1
 192
LT
PUSHB_1
 4
MINDEX
AND
PUSHB_1
 4
RCVT
OR
IF
POP
SWAP
POP
ELSE
ROLL
IF
DUP
PUSHB_1
 80
LT
IF
POP
PUSHB_1
 64
EIF
ELSE
DUP
PUSHB_1
 56
LT
IF
POP
PUSHB_1
 56
EIF
EIF
DUP
PUSHB_1
 10
RCVT
SUB
ABS
PUSHB_1
 40
LT
IF
POP
PUSHB_1
 10
RCVT
DUP
PUSHB_1
 48
LT
IF
POP
PUSHB_1
 48
EIF
ELSE
DUP
PUSHB_1
 192
LT
IF
DUP
FLOOR
DUP
ROLL
ROLL
SUB

StartChar: .notdef
Encoding: 1114112 -1 0
Width: 364
Flags: W
LayerCount: 2
Fore
SplineSet
33 0 m 1,0,-1
 33 666 l 1,1,-1
 298 666 l 1,2,-1
 298 0 l 1,3,-1
 33 0 l 1,0,-1
66 33 m 1,4,-1
 265 33 l 1,5,-1
 265 633 l 1,6,-1
 66 633 l 1,7,-1
 66 33 l 1,4,-1
EndSplineSet
Validated: 1
EndChar

StartChar: G
Encoding: 71 71 3
Width: 676
Flags: W
LayerCount: 2
Fore
SplineSet
332 -150 m 0,0,1
 256 -150 256 -150 186.5 -132.5 c 128,-1,2
 117 -115 117 -115 66 -72 c 128,-1,3
 15 -29 15 -29 15 32 c 0,4,5
 15 119 15 119 104 187 c 128,-1,6
 193 255 193 255 319 255 c 2,7,-1
 373 255 l 1,8,9
 331 296 331 296 331 341 c 0,10,11
 331 371 331 371 347 399 c 1,12,13
 340 398 340 398 318 398 c 0,14,15
 215 398 215 398 148 463 c 0,16,17
 82 528 82 528 82 623 c 0,18,19
 82 715 82 715 164 782 c 0,20,21
 247 850 247 850 351 850 c 2,22,-1
 661 850 l 1,23,-1
 592 800 l 1,24,-1
 494 800 l 1,25,26
 539 783 539 783 566.5 733.5 c 128,-1,27
 594 684 594 684 594 621 c 0,28,29
 594 528 594 528 506 459 c 0,30,31
 470 431 470 431 458 413 c 0,32,33
 447 396 447 396 447 371 c 0,34,35
 447 352 447 352 474 323 c 0,36,37
 504 291 504 291 528 274 c 0,38,39
 588 232 588 232 612 186 c 0,40,41
 636 141 636 141 636 73 c 0,42,43
 636 -18 636 -18 554 -84 c 256,44,45
 472 -150 472 -150 332 -150 c 0,0,1
186 -52 m 0,46,47
 246 -101 246 -101 331 -101 c 0,48,49
 449 -101 449 -101 504 -57 c 0,50,51
 557 -14 557 -14 557 60 c 0,52,53
 557 107 557 107 520 148 c 0,54,55
 516 152 516 152 480 179 c 1,56,57
 445 204 445 204 429 214 c 1,58,59
 390 226 390 226 352 226 c 2,60,-1
 348 226 l 2,61,62
 262 226 262 226 195 179 c 0,63,64
 127 131 127 131 127 65 c 0,65,66
 127 -4 127 -4 186 -52 c 0,46,47
193 624 m 1,67,68
 203 552 203 552 250.5 491.5 c 128,-1,69
 298 431 298 431 363 430 c 1,70,-1
 367 430 l 2,71,72
 419 430 419 430 451.5 475 c 128,-1,73
 484 520 484 520 484 581 c 0,74,75
 484 681 484 681 422 749 c 0,76,77
 372 805 372 805 313 806 c 1,78,-1
 309 806 l 2,79,80
 256 806 256 806 223.5 762.5 c 128,-1,81
 191 719 191 719 191 657 c 0,82,83
 191 646 191 646 193 624 c 1,67,68
EndSplineSet
Validated: 1
EndChar

StartChar: T
Encoding: 84 84 4
Width: 1260
Flags: W
LayerCount: 2
Fore
SplineSet
15 -37 m 1,0,1
 45 -40 45 -40 75 -40 c 0,2,3
 251 -40 251 -40 389 68 c 1,4,5
 305 69 305 69 240.5 119.5 c 128,-1,6
 176 170 176 170 153 243 c 1,7,8
 170 239 170 239 200 239 c 0,9,10
 236 239 236 239 267 248 c 1,11,12
 182 264 182 264 123 333 c 128,-1,13
 64 402 64 402 64 495 c 2,14,-1
 64 498 l 1,15,16
 116 469 116 469 179 467 c 1,17,18
 130 499 130 499 98 554 c 128,-1,19
 66 609 66 609 66 677 c 128,-1,20
 66 745 66 745 101 804 c 1,21,22
 190 692 190 692 324 620.5 c 128,-1,23
 458 549 458 549 621 540 c 1,24,25
 614 571 614 571 614 598 c 0,26,27
 614 702 614 702 688 776 c 128,-1,28
 762 850 762 850 867 850 c 0,29,30
 976 850 976 850 1051 770 c 1,31,32
 1136 788 1136 788 1211 832 c 1,33,34
 1183 741 1183 741 1101 692 c 1,35,36
 1176 701 1176 701 1245 732 c 1,37,38
 1197 657 1197 657 1120 601 c 1,39,-1
 1120 568 l 2,40,41
 1120 356 1120 356 1000 172 c 0,42,43
 869 -30 869 -30 654 -108 c 0,44,45
 537 -150 537 -150 402 -150 c 0,46,47
 194 -150 194 -150 15 -37 c 1,0,1
EndSplineSet
Validated: 1
EndChar

StartChar: f
Encoding: 102 102 5
Width: 568
Flags: W
LayerCount: 2
Fore
SplineSet
15 313 m 1,0,-1
 15 504 l 1,1,-1
 169 504 l 1,2,-1
 169 600 l 2,3,4
 169 704 169 704 236 777 c 128,-1,5
 303 850 303 850 400 850 c 2,6,-1
 553 850 l 1,7,-1
 553 659 l 1,8,-1
 400 659 l 2,9,10
 383 659 383 659 372 641 c 128,-1,11
 361 623 361 623 361 602 c 2,12,-1
 361 504 l 1,13,-1
 553 504 l 1,14,-1
 553 313 l 1,15,-1
 361 313 l 1,16,-1
 361 -150 l 1,17,-1
 169 -150 l 1,18,-1
 169 313 l 1,19,-1
 15 313 l 1,0,-1
EndSplineSet
Validated: 1
EndChar

StartChar: arrowright
Encoding: 8594 8594 6
Width: 851
Flags: W
LayerCount: 2
Fore
SplineSet
15 279 m 2,0,-1
 15 350 l 2,1,2
 15 380 15 380 33 400.5 c 128,-1,3
 51 421 51 421 80 421 c 2,4,-1
 473 421 l 1,5,-1
 310 585 l 1,6,7
 288 605 288 605 288 636 c 0,8,9
 288 666 288 666 310 686 c 1,10,-1
 351 728 l 2,11,12
 372 749 372 749 402 749 c 0,13,14
 431 749 431 749 452 728 c 2,15,-1
 816 365 l 2,16,17
 836 346 836 346 836 314 c 0,18,19
 836 284 836 284 816 264 c 2,20,-1
 452 -100 l 2,21,22
 431 -120 431 -120 402 -120 c 0,23,24
 372 -120 372 -120 351 -100 c 1,25,-1
 310 -58 l 2,26,27
 288 -36 288 -36 288 -7 c 128,-1,28
 288 22 288 22 310 44 c 2,29,-1
 473 207 l 1,30,-1
 80 207 l 2,31,32
 51 207 51 207 33 228 c 128,-1,33
 15 249 15 249 15 279 c 2,0,-1
EndSplineSet
Validated: 1
EndChar

StartChar: uni25B4
Encoding: 9652 9652 7
Width: 601
Flags: W
LayerCount: 2
Fore
SplineSet
15 171 m 0,0,1
 15 186 15 186 26 197 c 2,2,-1
 276 447 l 2,3,4
 286 457 286 457 301 457 c 128,-1,5
 316 457 316 457 326 447 c 2,6,-1
 576 197 l 2,7,8
 586 187 586 187 586 171 c 0,9,10
 586 157 586 157 575.5 146.5 c 128,-1,11
 565 136 565 136 551 136 c 2,12,-1
 51 136 l 2,13,14
 37 136 37 136 26 146.5 c 128,-1,15
 15 157 15 157 15 171 c 0,0,1
EndSplineSet
Validated: 1
EndChar

StartChar: uni25B8
Encoding: 9656 9656 8
Width: 351
Flags: W
LayerCount: 2
Fore
SplineSet
15 100 m 2,0,-1
 15 600 l 2,1,2
 15 614 15 614 26 625 c 128,-1,3
 37 636 37 636 51 636 c 128,-1,4
 65 636 65 636 76 625 c 2,5,-1
 326 375 l 2,6,7
 336 365 336 365 336 350 c 128,-1,8
 336 335 336 335 326 325 c 2,9,-1
 76 75 l 2,10,11
 65 64 65 64 51 64 c 128,-1,12
 37 64 37 64 26 75 c 128,-1,13
 15 86 15 86 15 100 c 2,0,-1
EndSplineSet
Validated: 1
EndChar

StartChar: uni25BE
Encoding: 9662 9662 9
Width: 601
Flags: W
LayerCount: 2
Fore
SplineSet
15 457 m 128,-1,1
 15 471 15 471 26 482 c 128,-1,2
 37 493 37 493 51 493 c 2,3,-1
 551 493 l 2,4,5
 565 493 565 493 575.5 482 c 128,-1,6
 586 471 586 471 586 457 c 0,7,8
 586 442 586 442 576 432 c 2,9,-1
 326 182 l 2,10,11
 315 171 315 171 301 171 c 128,-1,12
 287 171 287 171 276 182 c 2,13,-1
 26 432 l 2,14,0
 15 443 15 443 15 457 c 128,-1,1
EndSplineSet
Validated: 1
EndChar

StartChar: uni25C2
Encoding: 9666 9666 10
Width: 351
Flags: W
LayerCount: 2
Fore
SplineSet
15 350 m 128,-1,1
 15 364 15 364 26 375 c 2,2,-1
 276 625 l 2,3,4
 287 636 287 636 301 636 c 128,-1,5
 315 636 315 636 325.5 625 c 128,-1,6
 336 614 336 614 336 600 c 2,7,-1
 336 100 l 2,8,9
 336 86 336 86 325.5 75 c 128,-1,10
 315 64 315 64 301 64 c 128,-1,11
 287 64 287 64 276 75 c 2,12,-1
 26 325 l 2,13,0
 15 336 15 336 15 350 c 128,-1,1
EndSplineSet
Validated: 1
EndChar

StartChar: uni2699
Encoding: 9881 9881 11
Width: 887
Flags: W
LayerCount: 2
Fore
SplineSet
15 413 m 2,0,1
 15 420 15 420 19.5 426 c 128,-1,2
 24 432 24 432 30 433 c 2,3,-1
 134 449 l 1,4,5
 140 470 140 470 156 500 c 1,6,7
 131 535 131 535 96 577 c 0,8,9
 90 583 90 583 90 591 c 0,10,11
 90 595 90 595 95 603 c 0,12,13
 108 621 108 621 149 662 c 128,-1,14
 190 703 190 703 203 703 c 0,15,16
 212 703 212 703 218 698 c 2,17,-1
 295 638 l 1,18,19
 311 647 311 647 345 659 c 1,20,21
 353 730 353 730 362 763 c 0,22,23
 367 779 367 779 382 779 c 2,24,-1
 506 779 l 2,25,26
 524 779 524 779 526 762 c 2,27,-1
 541 659 l 1,28,29
 574 648 574 648 591 639 c 1,30,-1
 671 698 l 1,31,32
 676 703 676 703 684 703 c 0,33,34
 693 703 693 703 698 698 c 0,35,36
 770 632 770 632 790 603 c 1,37,38
 794 599 794 599 794 591 c 128,-1,39
 794 583 794 583 790 578 c 0,40,41
 785 571 785 571 760.5 539.5 c 128,-1,42
 736 508 736 508 731 501 c 1,43,44
 745 475 745 475 754 447 c 1,45,-1
 856 431 l 2,46,47
 872 429 872 429 872 411 c 2,48,-1
 872 287 l 2,49,50
 872 280 872 280 867.5 274 c 128,-1,51
 863 268 863 268 857 267 c 2,52,-1
 753 251 l 1,53,54
 742 221 742 221 732 200 c 1,55,56
 752 170 752 170 791 123 c 0,57,58
 797 117 797 117 797 109 c 0,59,60
 797 104 797 104 792 97 c 0,61,62
 780 80 780 80 739 38.5 c 128,-1,63
 698 -3 698 -3 684 -3 c 0,64,65
 678 -3 678 -3 670 2 c 2,66,-1
 593 62 l 1,67,68
 579 54 579 54 542 41 c 1,69,70
 533 -37 533 -37 526 -63 c 0,71,72
 521 -79 521 -79 506 -79 c 2,73,-1
 382 -79 l 2,74,75
 364 -79 364 -79 362 -62 c 2,76,-1
 346 41 l 1,77,78
 313 52 313 52 296 61 c 1,79,-1
 217 2 l 2,80,81
 210 -3 210 -3 203 -3 c 0,82,83
 195 -3 195 -3 189 3 c 0,84,85
 124 61 124 61 97 97 c 0,86,87
 93 102 93 102 93 109 c 0,88,89
 93 115 93 115 98 122 c 128,-1,90
 103 129 103 129 127 160.5 c 128,-1,91
 151 192 151 192 156 199 c 1,92,93
 140 230 140 230 133 254 c 1,94,-1
 31 269 l 2,95,96
 15 271 15 271 15 289 c 2,97,-1
 15 413 l 2,0,1
301 350 m 128,-1,99
 301 292 301 292 343.5 249.5 c 128,-1,100
 386 207 386 207 444 207 c 128,-1,101
 502 207 502 207 544 249 c 128,-1,102
 586 291 586 291 586 350 c 128,-1,103
 586 409 586 409 544 451 c 128,-1,104
 502 493 502 493 444 493 c 128,-1,105
 386 493 386 493 343.5 450.5 c 128,-1,98
 301 408 301 408 301 350 c 128,-1,99
EndSplineSet
Validated: 1
EndChar

StartChar: uni270D
Encoding: 9997 9997 12
Width: 1026
Flags: W
LayerCount: 2
Fore
SplineSet
176 -7 m 2,0,1
 110 -7 110 -7 62.5 40.5 c 128,-1,2
 15 88 15 88 15 154 c 2,3,-1
 15 618 l 2,4,5
 15 684 15 684 62.5 731.5 c 128,-1,6
 110 779 110 779 176 779 c 2,7,-1
 640 779 l 2,8,9
 674 779 674 779 705 765 c 0,10,11
 713 761 713 761 715 752 c 128,-1,12
 717 743 717 743 710 736 c 2,13,-1
 683 708 l 2,14,15
 678 703 678 703 671 703 c 128,-1,16
 664 703 664 703 654.5 705 c 128,-1,17
 645 707 645 707 640 707 c 2,18,-1
 176 707 l 2,19,20
 139 707 139 707 112.5 681 c 128,-1,21
 86 655 86 655 86 618 c 2,22,-1
 86 154 l 2,23,24
 86 117 86 117 112.5 90.5 c 128,-1,25
 139 64 139 64 176 64 c 2,26,-1
 640 64 l 2,27,28
 677 64 677 64 703 90.5 c 128,-1,29
 729 117 729 117 729 154 c 2,30,-1
 729 224 l 2,31,32
 729 231 729 231 734 236 c 2,33,-1
 770 272 l 2,34,35
 779 281 779 281 790 276.5 c 128,-1,36
 801 272 801 272 801 260 c 2,37,-1
 801 154 l 2,38,39
 801 88 801 88 753.5 40.5 c 128,-1,40
 706 -7 706 -7 640 -7 c 2,41,-1
 176 -7 l 2,0,1
372 296 m 1,42,-1
 747 671 l 1,43,-1
 908 511 l 1,44,-1
 533 136 l 1,45,-1
 372 136 l 1,46,-1
 372 296 l 1,42,-1
479 243 m 1,47,-1
 479 189 l 1,48,-1
 511 189 l 1,49,-1
 575 254 l 1,50,-1
 490 339 l 1,51,-1
 426 274 l 1,52,-1
 426 243 l 1,53,-1
 479 243 l 1,47,-1
560 377 m 2,54,-1
 756 573 l 2,55,56
 762 579 762 579 760 586.5 c 128,-1,57
 758 594 758 594 751.5 595 c 128,-1,58
 745 596 745 596 738 591 c 1,59,-1
 542 395 l 2,60,61
 533 386 533 386 542 377 c 128,-1,62
 551 368 551 368 560 377 c 2,54,-1
783 707 m 1,63,-1
 834 758 l 2,64,65
 850 774 850 774 872 774 c 128,-1,66
 894 774 894 774 910 758 c 2,67,-1
 995 674 l 2,68,69
 1011 658 1011 658 1011 636 c 128,-1,70
 1011 614 1011 614 995 598 c 2,71,-1
 944 546 l 1,72,-1
 783 707 l 1,63,-1
EndSplineSet
Validated: 1
EndChar

StartChar: uni270E
Encoding: 9998 9998 13
Width: 875
Flags: W
LayerCount: 2
Fore
SplineSet
15 154 m 1,0,-1
 479 618 l 1,1,-1
 711 386 l 1,2,-1
 247 -79 l 1,3,-1
 15 -79 l 1,4,-1
 15 154 l 1,0,-1
158 64 m 1,5,-1
 158 -7 l 1,6,-1
 218 -7 l 1,7,-1
 268 44 l 1,8,-1
 137 175 l 1,9,-1
 86 124 l 1,10,-1
 86 64 l 1,11,-1
 158 64 l 1,5,-1
194 195 m 0,12,13
 199 195 199 195 203 199 c 2,14,-1
 506 501 l 2,15,16
 509 504 509 504 509 511 c 0,17,18
 509 523 509 523 497 523 c 0,19,20
 492 523 492 523 488 519 c 2,21,-1
 185 217 l 2,22,23
 181 213 181 213 181 207 c 0,24,25
 181 195 181 195 194 195 c 0,12,13
515 654 m 1,26,-1
 608 746 l 2,27,28
 628 767 628 767 658 767 c 128,-1,29
 688 767 688 767 709 746 c 2,30,-1
 840 615 l 2,31,32
 860 594 860 594 860 564 c 128,-1,33
 860 534 860 534 840 514 c 2,34,-1
 747 421 l 1,35,-1
 515 654 l 1,26,-1
EndSplineSet
Validated: 1
EndChar

StartChar: uni2713
Encoding: 10003 10003 14
Width: 895
Flags: W
LayerCount: 2
Fore
SplineSet
15 332 m 128,-1,1
 15 354 15 354 31 370 c 2,2,-1
 107 446 l 2,3,4
 123 462 123 462 144 462 c 0,5,6
 166 462 166 462 182 446 c 2,7,-1
 346 281 l 1,8,-1
 713 648 l 2,9,10
 729 664 729 664 750 664 c 0,11,12
 772 664 772 664 788 648 c 2,13,-1
 864 572 l 2,14,15
 880 556 880 556 880 534 c 128,-1,16
 880 512 880 512 864 496 c 2,17,-1
 384 16 l 2,18,19
 369 1 369 1 346 1 c 0,20,21
 324 1 324 1 309 16 c 2,22,-1
 31 294 l 2,23,0
 15 310 15 310 15 332 c 128,-1,1
EndSplineSet
Validated: 1
EndChar

StartChar: uni2715
Encoding: 10005 10005 15
Width: 693
Flags: W
LayerCount: 2
Fore
SplineSet
15 112 m 128,-1,1
 15 134 15 134 31 150 c 2,2,-1
 195 314 l 1,3,-1
 31 478 l 2,4,5
 15 494 15 494 15 516 c 128,-1,6
 15 538 15 538 31 554 c 2,7,-1
 107 630 l 2,8,9
 123 646 123 646 144 646 c 0,10,11
 166 646 166 646 182 630 c 2,12,-1
 346 466 l 1,13,-1
 511 630 l 2,14,15
 527 646 527 646 548 646 c 0,16,17
 570 646 570 646 586 630 c 2,18,-1
 662 554 l 2,19,20
 678 538 678 538 678 516 c 128,-1,21
 678 494 678 494 662 478 c 2,22,-1
 498 314 l 1,23,-1
 662 150 l 2,24,25
 678 134 678 134 678 112 c 128,-1,26
 678 90 678 90 662 74 c 2,27,-1
 586 -2 l 2,28,29
 571 -17 571 -17 548 -17 c 0,30,31
 526 -17 526 -17 511 -2 c 2,32,-1
 346 162 l 1,33,-1
 182 -2 l 2,34,35
 167 -17 167 -17 144 -17 c 0,36,37
 122 -17 122 -17 107 -2 c 2,38,-1
 31 74 l 2,39,0
 15 90 15 90 15 112 c 128,-1,1
EndSplineSet
Validated: 1
EndChar

StartChar: uni2716
Encoding: 10006 10006 16
Width: 887
Flags: W
LayerCount: 2
Fore
SplineSet
15 350 m 0,0,1
 15 473 15 473 75 569.5 c 128,-1,2
 135 666 135 666 228 721 c 1,3,4
 329 779 329 779 444 779 c 0,5,6
 567 779 567 779 663.5 719 c 128,-1,7
 760 659 760 659 815 565 c 0,8,9
 872 466 872 466 872 350 c 0,10,11
 872 227 872 227 812 130.5 c 128,-1,12
 752 34 752 34 659 -21 c 1,13,14
 558 -79 558 -79 444 -79 c 0,15,16
 321 -79 321 -79 224 -19 c 128,-1,17
 127 41 127 41 72 135 c 0,18,19
 15 234 15 234 15 350 c 0,0,1
231 224 m 0,20,21
 231 209 231 209 242 198 c 2,22,-1
 292 148 l 2,23,24
 303 137 303 137 317 137 c 0,25,26
 332 137 332 137 343 148 c 2,27,-1
 444 249 l 1,28,-1
 545 148 l 2,29,30
 556 137 556 137 570 137 c 128,-1,31
 584 137 584 137 595 148 c 2,32,-1
 646 198 l 2,33,34
 656 208 656 208 656 224 c 0,35,36
 656 239 656 239 646 249 c 2,37,-1
 545 350 l 1,38,-1
 646 451 l 2,39,40
 656 461 656 461 656 476 c 0,41,42
 656 492 656 492 646 502 c 2,43,-1
 595 552 l 2,44,45
 584 563 584 563 570 563 c 128,-1,46
 556 563 556 563 545 552 c 2,47,-1
 444 451 l 1,48,-1
 343 552 l 2,49,50
 332 563 332 563 317 563 c 0,51,52
 303 563 303 563 292 552 c 2,53,-1
 242 502 l 2,54,55
 231 491 231 491 231 476 c 0,56,57
 231 462 231 462 242 451 c 2,58,-1
 343 350 l 1,59,-1
 242 249 l 2,60,61
 231 238 231 238 231 224 c 0,20,21
EndSplineSet
Validated: 1
EndChar

StartChar: uni2757
Encoding: 10071 10071 17
Width: 887
Flags: W
LayerCount: 2
Fore
SplineSet
15 350 m 0,0,1
 15 473 15 473 75 569.5 c 128,-1,2
 135 666 135 666 228 721 c 1,3,4
 329 779 329 779 444 779 c 0,5,6
 567 779 567 779 663.5 719 c 128,-1,7
 760 659 760 659 815 565 c 0,8,9
 872 466 872 466 872 350 c 0,10,11
 872 227 872 227 812 130.5 c 128,-1,12
 752 34 752 34 659 -21 c 1,13,14
 558 -79 558 -79 444 -79 c 0,15,16
 321 -79 321 -79 224 -19 c 128,-1,17
 127 41 127 41 72 135 c 0,18,19
 15 234 15 234 15 350 c 0,0,1
382 636 m 2,20,21
 375 636 375 636 369 631.5 c 128,-1,22
 363 627 363 627 363 621 c 2,23,-1
 373 275 l 2,24,25
 373 269 373 269 379 265 c 128,-1,26
 385 261 385 261 392 261 c 2,27,-1
 495 261 l 2,28,29
 512 261 512 261 514 275 c 1,30,-1
 524 621 l 2,31,32
 524 627 524 627 518 631.5 c 128,-1,33
 512 636 512 636 505 636 c 2,34,-1
 382 636 l 2,20,21
372 83 m 2,35,36
 372 76 372 76 378 70 c 128,-1,37
 384 64 384 64 391 64 c 2,38,-1
 498 64 l 2,39,40
 505 64 505 64 510 69.5 c 128,-1,41
 515 75 515 75 515 83 c 2,42,-1
 515 189 l 2,43,44
 515 207 515 207 498 207 c 2,45,-1
 391 207 l 2,46,47
 383 207 383 207 377.5 201.5 c 128,-1,48
 372 196 372 196 372 189 c 2,49,-1
 372 83 l 2,35,36
EndSplineSet
Validated: 1
EndChar

StartChar: uni2795
Encoding: 10133 10133 18
Width: 887
Flags: W
LayerCount: 2
Fore
SplineSet
15 350 m 0,0,1
 15 473 15 473 75 569.5 c 128,-1,2
 135 666 135 666 228 721 c 1,3,4
 329 779 329 779 444 779 c 0,5,6
 567 779 567 779 663.5 719 c 128,-1,7
 760 659 760 659 815 565 c 0,8,9
 872 466 872 466 872 350 c 0,10,11
 872 227 872 227 812 130.5 c 128,-1,12
 752 34 752 34 659 -21 c 1,13,14
 558 -79 558 -79 444 -79 c 0,15,16
 321 -79 321 -79 224 -19 c 128,-1,17
 127 41 127 41 72 135 c 0,18,19
 15 234 15 234 15 350 c 0,0,1
194 314 m 2,20,21
 194 300 194 300 204.5 289.5 c 128,-1,22
 215 279 215 279 229 279 c 2,23,-1
 372 279 l 1,24,-1
 372 136 l 2,25,26
 372 122 372 122 383 111 c 128,-1,27
 394 100 394 100 408 100 c 2,28,-1
 479 100 l 2,29,30
 493 100 493 100 504 111 c 128,-1,31
 515 122 515 122 515 136 c 2,32,-1
 515 279 l 1,33,-1
 658 279 l 2,34,35
 672 279 672 279 683 289.5 c 128,-1,36
 694 300 694 300 694 314 c 2,37,-1
 694 386 l 2,38,39
 694 400 694 400 683 410.5 c 128,-1,40
 672 421 672 421 658 421 c 2,41,-1
 515 421 l 1,42,-1
 515 564 l 2,43,44
 515 578 515 578 504 589 c 128,-1,45
 493 600 493 600 479 600 c 2,46,-1
 408 600 l 2,47,48
 394 600 394 600 383 589 c 128,-1,49
 372 578 372 578 372 564 c 2,50,-1
 372 421 l 1,51,-1
 229 421 l 2,52,53
 215 421 215 421 204.5 410.5 c 128,-1,54
 194 400 194 400 194 386 c 2,55,-1
 194 314 l 2,20,21
EndSplineSet
Validated: 1
EndChar

StartChar: uni2796
Encoding: 10134 10134 19
Width: 887
Flags: W
LayerCount: 2
Fore
SplineSet
15 350 m 0,0,1
 15 473 15 473 75 569.5 c 128,-1,2
 135 666 135 666 228 721 c 1,3,4
 329 779 329 779 444 779 c 0,5,6
 567 779 567 779 663.5 719 c 128,-1,7
 760 659 760 659 815 565 c 0,8,9
 872 466 872 466 872 350 c 0,10,11
 872 227 872 227 812 130.5 c 128,-1,12
 752 34 752 34 659 -21 c 1,13,14
 558 -79 558 -79 444 -79 c 0,15,16
 321 -79 321 -79 224 -19 c 128,-1,17
 127 41 127 41 72 135 c 0,18,19
 15 234 15 234 15 350 c 0,0,1
194 314 m 2,20,21
 194 300 194 300 204.5 289.5 c 128,-1,22
 215 279 215 279 229 279 c 2,23,-1
 658 279 l 2,24,25
 672 279 672 279 683 289.5 c 128,-1,26
 694 300 694 300 694 314 c 2,27,-1
 694 386 l 2,28,29
 694 400 694 400 683 410.5 c 128,-1,30
 672 421 672 421 658 421 c 2,31,-1
 229 421 l 2,32,33
 215 421 215 421 204.5 410.5 c 128,-1,34
 194 400 194 400 194 386 c 2,35,-1
 194 314 l 2,20,21
EndSplineSet
Validated: 1
EndChar

StartChar: uni27F2
Encoding: 10226 10226 20
Width: 887
Flags: W
LayerCount: 2
Fore
SplineSet
15 457 m 2,0,-1
 15 707 l 2,1,2
 15 729 15 729 37 739 c 128,-1,3
 59 749 59 749 76 732 c 2,4,-1
 148 660 l 1,5,6
 274 779 274 779 444 779 c 0,7,8
 534 779 534 779 612.5 744 c 128,-1,9
 691 709 691 709 747 653 c 0,10,11
 802 598 802 598 837 519.5 c 128,-1,12
 872 441 872 441 872 350 c 128,-1,13
 872 259 872 259 837 180.5 c 128,-1,14
 802 102 802 102 747 47 c 0,15,16
 691 -9 691 -9 612.5 -44 c 128,-1,17
 534 -79 534 -79 444 -79 c 0,18,19
 338 -79 338 -79 251.5 -34 c 128,-1,20
 165 11 165 11 107 83 c 1,21,22
 48 159 48 159 25 257 c 0,23,24
 24 265 24 265 29.5 272 c 128,-1,25
 35 279 35 279 43 279 c 2,26,-1
 154 279 l 2,27,28
 167 279 167 279 171 266 c 0,29,30
 198 180 198 180 271.5 122 c 128,-1,31
 345 64 345 64 444 64 c 0,32,33
 562 64 562 64 646 148 c 0,34,35
 729 231 729 231 729 350 c 128,-1,36
 729 469 729 469 646 552 c 0,37,38
 562 636 562 636 444 636 c 0,39,40
 331 636 331 636 249 559 c 1,41,-1
 326 482 l 2,42,43
 343 465 343 465 333 443 c 128,-1,44
 323 421 323 421 301 421 c 2,45,-1
 51 421 l 2,46,47
 37 421 37 421 26 432 c 128,-1,48
 15 443 15 443 15 457 c 2,0,-1
EndSplineSet
Validated: 33
EndChar

StartChar: uni27F3
Encoding: 10227 10227 21
Width: 887
Flags: W
LayerCount: 2
Fore
SplineSet
15 350 m 128,-1,1
 15 440 15 440 50 518.5 c 128,-1,2
 85 597 85 597 141 653 c 128,-1,3
 197 709 197 709 275.5 744 c 128,-1,4
 354 779 354 779 444 779 c 0,5,6
 613 779 613 779 739 660 c 1,7,-1
 811 732 l 2,8,9
 827 749 827 749 850 740 c 0,10,11
 872 731 872 731 872 707 c 2,12,-1
 872 457 l 2,13,14
 872 443 872 443 861 432 c 128,-1,15
 850 421 850 421 836 421 c 2,16,-1
 586 421 l 2,17,18
 564 421 564 421 554 443 c 128,-1,19
 544 465 544 465 561 482 c 2,20,-1
 638 559 l 1,21,22
 555 636 555 636 444 636 c 0,23,24
 326 636 326 636 242 552 c 128,-1,25
 158 468 158 468 158 350 c 128,-1,26
 158 232 158 232 242 148 c 128,-1,27
 326 64 326 64 444 64 c 0,28,29
 543 64 543 64 616 122 c 128,-1,30
 689 180 689 180 716 266 c 0,31,32
 720 279 720 279 733 279 c 2,33,-1
 844 279 l 2,34,35
 852 279 852 279 857.5 272 c 128,-1,36
 863 265 863 265 862 257 c 0,37,38
 840 158 840 158 778.5 81.5 c 128,-1,39
 717 5 717 5 631 -36 c 0,40,41
 540 -79 540 -79 444 -79 c 0,42,43
 354 -79 354 -79 275.5 -44 c 128,-1,44
 197 -9 197 -9 141 47 c 128,-1,45
 85 103 85 103 50 181.5 c 128,-1,0
 15 260 15 260 15 350 c 128,-1,1
EndSplineSet
Validated: 33
EndChar

StartChar: uniE705
Encoding: 59141 59141 22
Width: 887
Flags: W
LayerCount: 2
Fore
SplineSet
15 350 m 0,0,1
 15 473 15 473 75 569.5 c 128,-1,2
 135 666 135 666 228 721 c 1,3,4
 329 779 329 779 444 779 c 0,5,6
 567 779 567 779 663.5 719 c 128,-1,7
 760 659 760 659 815 565 c 0,8,9
 872 466 872 466 872 350 c 0,10,11
 872 227 872 227 812 130.5 c 128,-1,12
 752 34 752 34 659 -21 c 1,13,14
 558 -79 558 -79 444 -79 c 0,15,16
 321 -79 321 -79 224 -19 c 128,-1,17
 127 41 127 41 72 135 c 0,18,19
 15 234 15 234 15 350 c 0,0,1
301 82 m 2,20,21
 301 74 301 74 306.5 69 c 128,-1,22
 312 64 312 64 319 64 c 2,23,-1
 569 64 l 2,24,25
 586 64 586 64 586 82 c 2,26,-1
 586 118 l 2,27,28
 586 136 586 136 569 136 c 2,29,-1
 515 136 l 1,30,-1
 515 404 l 2,31,32
 515 421 515 421 497 421 c 2,33,-1
 319 421 l 2,34,35
 301 421 301 421 301 404 c 2,36,-1
 301 368 l 2,37,38
 301 360 301 360 306.5 355 c 128,-1,39
 312 350 312 350 319 350 c 2,40,-1
 372 350 l 1,41,-1
 372 136 l 1,42,-1
 319 136 l 2,43,44
 312 136 312 136 306.5 131 c 128,-1,45
 301 126 301 126 301 118 c 2,46,-1
 301 82 l 2,20,21
372 511 m 2,47,48
 372 504 372 504 377 498.5 c 128,-1,49
 382 493 382 493 390 493 c 2,50,-1
 497 493 l 2,51,52
 504 493 504 493 509.5 498.5 c 128,-1,53
 515 504 515 504 515 511 c 2,54,-1
 515 618 l 2,55,56
 515 626 515 626 509.5 631 c 128,-1,57
 504 636 504 636 497 636 c 2,58,-1
 390 636 l 2,59,60
 382 636 382 636 377 631 c 128,-1,61
 372 626 372 626 372 618 c 2,62,-1
 372 511 l 2,47,48
EndSplineSet
Validated: 1
EndChar

StartChar: uniE70A
Encoding: 59146 59146 23
Width: 1030
Flags: W
LayerCount: 2
Fore
SplineSet
26 353 m 1,0,1
 100 473 100 473 229.5 554.5 c 128,-1,2
 359 636 359 636 515 636 c 128,-1,3
 671 636 671 636 800.5 554.5 c 128,-1,4
 930 473 930 473 1004 353 c 1,5,6
 1015 333 1015 333 1015 314 c 0,7,8
 1015 296 1015 296 1004 276 c 1,9,10
 930 156 930 156 801 74.5 c 128,-1,11
 672 -7 672 -7 515 -7 c 0,12,13
 359 -7 359 -7 229.5 74.5 c 128,-1,14
 100 156 100 156 26 276 c 1,15,16
 15 296 15 296 15 314 c 0,17,18
 15 333 15 333 26 353 c 1,0,1
86 314 m 1,19,20
 156 205 156 205 266 134.5 c 128,-1,21
 376 64 376 64 515 64 c 128,-1,22
 654 64 654 64 764 134.5 c 128,-1,23
 874 205 874 205 944 314 c 1,24,25
 859 444 859 444 731 511 c 1,26,27
 765 453 765 453 765 386 c 0,28,29
 765 282 765 282 692 209 c 128,-1,30
 619 136 619 136 515 136 c 128,-1,31
 411 136 411 136 338 209 c 128,-1,32
 265 282 265 282 265 386 c 0,33,34
 265 453 265 453 299 511 c 1,35,36
 171 444 171 444 86 314 c 1,19,20
345 386 m 0,37,38
 345 375 345 375 353 367 c 128,-1,39
 361 359 361 359 372 359 c 128,-1,40
 383 359 383 359 391 367 c 128,-1,41
 399 375 399 375 399 386 c 0,42,43
 399 433 399 433 433.5 467.5 c 128,-1,44
 468 502 468 502 515 502 c 0,45,46
 526 502 526 502 534 510 c 128,-1,47
 542 518 542 518 542 529 c 128,-1,48
 542 540 542 540 534 547.5 c 128,-1,49
 526 555 526 555 515 555 c 0,50,51
 446 555 446 555 395.5 505 c 128,-1,52
 345 455 345 455 345 386 c 0,37,38
EndSplineSet
Validated: 1
EndChar

StartChar: uniE715
Encoding: 59157 59157 24
Width: 959
Flags: W
LayerCount: 2
Fore
SplineSet
176 -7 m 2,0,1
 110 -7 110 -7 62.5 40.5 c 128,-1,2
 15 88 15 88 15 154 c 2,3,-1
 15 618 l 2,4,5
 15 684 15 684 62.5 731.5 c 128,-1,6
 110 779 110 779 176 779 c 2,7,-1
 318 779 l 2,8,9
 326 779 326 779 331 773.5 c 128,-1,10
 336 768 336 768 336 761 c 0,11,12
 336 746 336 746 321 743 c 1,13,14
 278 728 278 728 247 709 c 1,15,16
 239 707 239 707 238 707 c 2,17,-1
 176 707 l 2,18,19
 139 707 139 707 112.5 681 c 128,-1,20
 86 655 86 655 86 618 c 2,21,-1
 86 154 l 2,22,23
 86 117 86 117 112.5 90.5 c 128,-1,24
 139 64 139 64 176 64 c 2,25,-1
 640 64 l 2,26,27
 677 64 677 64 703 90.5 c 128,-1,28
 729 117 729 117 729 154 c 2,29,-1
 729 273 l 2,30,31
 729 283 729 283 739 289 c 1,32,33
 754 296 754 296 769 310 c 0,34,35
 778 319 778 319 789.5 314 c 128,-1,36
 801 309 801 309 801 298 c 2,37,-1
 801 154 l 2,38,39
 801 88 801 88 753.5 40.5 c 128,-1,40
 706 -7 706 -7 640 -7 c 2,41,-1
 176 -7 l 2,0,1
158 386 m 0,42,43
 158 477 158 477 186.5 540 c 128,-1,44
 215 603 215 603 271 639 c 128,-1,45
 327 675 327 675 399.5 691 c 128,-1,46
 472 707 472 707 569 707 c 2,47,-1
 658 707 l 1,48,-1
 658 814 l 2,49,50
 658 829 658 829 668 839.5 c 128,-1,51
 678 850 678 850 694 850 c 0,52,53
 708 850 708 850 719 839 c 2,54,-1
 933 625 l 2,55,56
 944 614 944 614 944 600 c 128,-1,57
 944 586 944 586 933 575 c 2,58,-1
 719 361 l 2,59,60
 708 350 708 350 694 350 c 0,61,62
 678 350 678 350 668 360.5 c 128,-1,63
 658 371 658 371 658 386 c 2,64,-1
 658 493 l 1,65,-1
 569 493 l 2,66,67
 388 493 388 493 324 420 c 1,68,69
 258 343 258 343 283 156 c 0,70,71
 285 136 285 136 265 136 c 0,72,73
 253 136 253 136 239 160 c 1,74,75
 188 240 188 240 168 318 c 0,76,77
 158 354 158 354 158 386 c 0,42,43
EndSplineSet
Validated: 33
EndChar

StartChar: uniE716
Encoding: 59158 59158 25
Width: 959
Flags: W
LayerCount: 2
Fore
SplineSet
33 64 m 2,0,1
 26 64 26 64 20.5 69 c 128,-1,2
 15 74 15 74 15 82 c 2,3,-1
 15 314 l 2,4,5
 15 358 15 358 46.5 389.5 c 128,-1,6
 78 421 78 421 122 421 c 2,7,-1
 158 421 l 1,8,-1
 158 725 l 2,9,10
 158 748 158 748 173.5 763.5 c 128,-1,11
 189 779 189 779 211 779 c 2,12,-1
 586 779 l 2,13,14
 609 779 609 779 636.5 767 c 128,-1,15
 664 755 664 755 678 741 c 2,16,-1
 763 656 l 2,17,18
 777 642 777 642 789 615 c 128,-1,19
 801 588 801 588 801 564 c 2,20,-1
 801 421 l 1,21,-1
 836 421 l 2,22,23
 880 421 880 421 912 389 c 128,-1,24
 944 357 944 357 944 314 c 2,25,-1
 944 82 l 2,26,27
 944 74 944 74 939 69 c 128,-1,28
 934 64 934 64 926 64 c 2,29,-1
 801 64 l 1,30,-1
 801 -25 l 2,31,32
 801 -48 801 -48 785.5 -63.5 c 128,-1,33
 770 -79 770 -79 747 -79 c 2,34,-1
 211 -79 l 2,35,36
 189 -79 189 -79 173.5 -63.5 c 128,-1,37
 158 -48 158 -48 158 -25 c 2,38,-1
 158 64 l 1,39,-1
 33 64 l 2,0,1
729 -7 m 1,40,-1
 729 136 l 1,41,-1
 229 136 l 1,42,-1
 229 -7 l 1,43,-1
 729 -7 l 1,40,-1
640 564 m 2,44,45
 618 564 618 564 602 580 c 128,-1,46
 586 596 586 596 586 618 c 2,47,-1
 586 707 l 1,48,-1
 229 707 l 1,49,-1
 229 350 l 1,50,-1
 729 350 l 1,51,-1
 729 564 l 1,52,-1
 640 564 l 2,44,45
801 314 m 128,-1,54
 801 300 801 300 811.5 289.5 c 128,-1,55
 822 279 822 279 836 279 c 128,-1,56
 850 279 850 279 861 289.5 c 128,-1,57
 872 300 872 300 872 314 c 128,-1,58
 872 328 872 328 861 339 c 128,-1,59
 850 350 850 350 836 350 c 128,-1,60
 822 350 822 350 811.5 339 c 128,-1,53
 801 328 801 328 801 314 c 128,-1,54
EndSplineSet
Validated: 1
EndChar

StartChar: uniE729
Encoding: 59177 59177 26
Width: 816
Flags: W
LayerCount: 2
Fore
SplineSet
33 564 m 2,0,1
 26 564 26 564 20.5 569 c 128,-1,2
 15 574 15 574 15 582 c 2,3,-1
 15 618 l 2,4,5
 15 626 15 626 20.5 631 c 128,-1,6
 26 636 26 636 33 636 c 2,7,-1
 205 636 l 1,8,-1
 244 729 l 2,9,10
 252 748 252 748 273.5 763.5 c 128,-1,11
 295 779 295 779 319 779 c 2,12,-1
 497 779 l 2,13,14
 521 779 521 779 542 763.5 c 128,-1,15
 563 748 563 748 571 729 c 2,16,-1
 610 636 l 1,17,-1
 783 636 l 2,18,19
 790 636 790 636 795.5 631 c 128,-1,20
 801 626 801 626 801 618 c 2,21,-1
 801 582 l 2,22,23
 801 574 801 574 795.5 569 c 128,-1,24
 790 564 790 564 783 564 c 2,25,-1
 729 564 l 1,26,-1
 729 35 l 2,27,28
 729 -9 729 -9 703.5 -44 c 128,-1,29
 678 -79 678 -79 640 -79 c 2,30,-1
 176 -79 l 2,31,32
 138 -79 138 -79 112 -45 c 128,-1,33
 86 -11 86 -11 86 33 c 2,34,-1
 86 564 l 1,35,-1
 33 564 l 2,0,1
158 35 m 2,36,37
 158 12 158 12 170 -2 c 0,38,39
 175 -7 175 -7 176 -7 c 2,40,-1
 640 -7 l 2,41,42
 647 -7 647 -7 652.5 8 c 128,-1,43
 658 23 658 23 658 35 c 2,44,-1
 658 564 l 1,45,-1
 158 564 l 1,46,-1
 158 35 l 2,36,37
247 100 m 2,47,48
 240 100 240 100 234.5 105 c 128,-1,49
 229 110 229 110 229 118 c 2,50,-1
 229 439 l 2,51,52
 229 446 229 446 234.5 451.5 c 128,-1,53
 240 457 240 457 247 457 c 2,54,-1
 283 457 l 2,55,56
 290 457 290 457 295.5 451.5 c 128,-1,57
 301 446 301 446 301 439 c 2,58,-1
 301 118 l 2,59,60
 301 110 301 110 295.5 105 c 128,-1,61
 290 100 290 100 283 100 c 2,62,-1
 247 100 l 2,47,48
283 636 m 1,63,-1
 533 636 l 1,64,-1
 506 701 l 1,65,66
 501 706 501 706 497 707 c 1,67,-1
 320 707 l 1,68,69
 315 706 315 706 310 701 c 1,70,-1
 283 636 l 1,63,-1
390 100 m 2,71,72
 382 100 382 100 377 105 c 128,-1,73
 372 110 372 110 372 118 c 2,74,-1
 372 439 l 2,75,76
 372 446 372 446 377 451.5 c 128,-1,77
 382 457 382 457 390 457 c 2,78,-1
 426 457 l 2,79,80
 434 457 434 457 439 451.5 c 128,-1,81
 444 446 444 446 444 439 c 2,82,-1
 444 118 l 2,83,84
 444 110 444 110 439 105 c 128,-1,85
 434 100 434 100 426 100 c 2,86,-1
 390 100 l 2,71,72
515 118 m 2,87,-1
 515 439 l 2,88,89
 515 446 515 446 520.5 451.5 c 128,-1,90
 526 457 526 457 533 457 c 2,91,-1
 569 457 l 2,92,93
 586 457 586 457 586 439 c 2,94,-1
 586 118 l 2,95,96
 586 100 586 100 569 100 c 2,97,-1
 533 100 l 2,98,99
 526 100 526 100 520.5 105 c 128,-1,100
 515 110 515 110 515 118 c 2,87,-1
EndSplineSet
Validated: 1
EndChar

StartChar: uniE77A
Encoding: 59258 59258 27
Width: 816
Flags: W
LayerCount: 2
Fore
SplineSet
414 779 m 0,0,1
 417 779 417 779 430.5 778.5 c 128,-1,2
 444 778 444 778 449 778 c 2,3,-1
 490 778 l 2,4,5
 539 778 539 778 596 763 c 1,6,7
 666 742 666 742 710.5 695 c 128,-1,8
 755 648 755 648 755 573 c 0,9,10
 755 496 755 496 684 443 c 0,11,12
 665 430 665 430 600 400 c 1,13,14
 699 378 699 378 749 318 c 1,15,16
 801 258 801 258 801 186 c 0,17,18
 801 112 801 112 763 55.5 c 128,-1,19
 725 -1 725 -1 667 -29 c 0,20,21
 575 -73 575 -73 443 -69 c 2,22,-1
 333 -66 l 2,23,24
 287 -65 287 -65 167 -72 c 0,25,26
 129 -75 129 -75 15 -79 c 1,27,-1
 16 -26 l 1,28,29
 110 -7 110 -7 123 -2 c 1,30,31
 133 14 133 14 134 26 c 0,32,33
 139 68 139 68 139 135 c 2,34,-1
 138 412 l 2,35,36
 137 456 137 456 135.5 532 c 128,-1,37
 134 608 134 608 133 637 c 0,38,39
 132 689 132 689 126 699 c 0,40,41
 118 711 118 711 82 713 c 0,42,43
 75 714 75 714 18 721 c 1,44,-1
 16 767 l 1,45,-1
 161 770 l 1,46,-1
 373 777 l 1,47,-1
 398 778 l 2,48,49
 400 778 400 778 406 778.5 c 128,-1,50
 412 779 412 779 414 779 c 0,0,1
378 414 m 0,51,52
 477 414 477 414 526 450.5 c 128,-1,53
 575 487 575 487 575 575 c 0,54,55
 575 637 575 637 527 679 c 0,56,57
 480 721 480 721 385 721 c 0,58,59
 353 721 353 721 312 714 c 1,60,61
 312 695 312 695 314 671 c 0,62,63
 317 626 317 626 317 515 c 1,64,-1
 316 460 l 2,65,66
 316 452 316 452 316.5 438 c 128,-1,67
 317 424 317 424 317 418 c 1,68,69
 338 414 338 414 378 414 c 0,51,52
316 176 m 1,70,-1
 318 26 l 2,71,72
 318 20 318 20 325 1 c 1,73,74
 367 -17 367 -17 403 -17 c 0,75,76
 613 -17 613 -17 613 170 c 0,77,78
 613 233 613 233 590 271 c 0,79,80
 557 324 557 324 512 341.5 c 128,-1,81
 467 359 467 359 373 359 c 0,82,83
 332 359 332 359 317 353 c 1,84,-1
 317 273 l 1,85,-1
 316 176 l 1,70,-1
EndSplineSet
Validated: 33
EndChar

StartChar: uniE77B
Encoding: 59259 59259 28
Width: 601
Flags: W
LayerCount: 2
Fore
SplineSet
15 -77 m 1,0,-1
 24 -30 l 2,1,2
 25 -30 25 -30 67 -19 c 0,3,4
 105 -9 105 -9 132 3 c 1,5,6
 149 25 149 25 155 59 c 0,7,8
 169 136 169 136 201 286 c 1,9,-1
 208 322 l 1,10,11
 223 406 223 406 238 450 c 2,12,-1
 240 456 l 1,13,-1
 257 544 l 1,14,-1
 266 579 l 1,15,16
 273 617 273 617 282 682 c 1,17,-1
 282 703 l 1,18,19
 257 716 257 716 202 719 c 0,20,21
 198 719 198 719 193.5 719.5 c 128,-1,22
 189 720 189 720 186 720.5 c 128,-1,23
 183 721 183 721 181 721 c 1,24,-1
 191 779 l 1,25,-1
 368 771 l 2,26,27
 383 770 383 770 409 770 c 0,28,29
 454 770 454 770 566 777 c 1,30,-1
 586 779 l 1,31,32
 583 751 583 751 576 729 c 1,33,34
 561 724 561 724 518.5 712.5 c 128,-1,35
 476 701 476 701 459 694 c 1,36,37
 444 656 444 656 438 599 c 1,38,39
 438 599 438 599 424 534 c 1,40,41
 415 497 415 497 410 472 c 128,-1,42
 405 447 405 447 401 429 c 2,43,-1
 367 255 l 1,44,-1
 346 167 l 1,45,-1
 322 36 l 1,46,-1
 315 11 l 2,47,48
 314 9 314 9 316 -4 c 1,49,50
 321 -5 321 -5 419 -22 c 1,51,52
 418 -30 418 -30 410 -77 c 1,53,54
 403 -77 403 -77 391.5 -78 c 128,-1,55
 380 -79 380 -79 374 -79 c 0,56,57
 372 -79 372 -79 358 -77 c 0,58,59
 320 -72 320 -72 277 -67 c 1,60,-1
 167 -66 l 2,61,62
 164 -66 164 -66 15 -77 c 1,0,-1
EndSplineSet
Validated: 1
EndChar

StartChar: uniE77E
Encoding: 59262 59262 29
Width: 1030
Flags: W
LayerCount: 2
Fore
SplineSet
51 -7 m 2,0,1
 37 -7 37 -7 26 4 c 128,-1,2
 15 15 15 15 15 29 c 2,3,-1
 15 100 l 2,4,5
 15 114 15 114 26 125 c 128,-1,6
 37 136 37 136 51 136 c 2,7,-1
 979 136 l 2,8,9
 993 136 993 136 1004 125 c 128,-1,10
 1015 114 1015 114 1015 100 c 2,11,-1
 1015 29 l 2,12,13
 1015 15 1015 15 1004 4 c 128,-1,14
 993 -7 993 -7 979 -7 c 2,15,-1
 51 -7 l 2,0,1
51 207 m 2,16,17
 37 207 37 207 26 218 c 128,-1,18
 15 229 15 229 15 243 c 2,19,-1
 15 314 l 2,20,21
 15 328 15 328 26 339 c 128,-1,22
 37 350 37 350 51 350 c 2,23,-1
 765 350 l 2,24,25
 779 350 779 350 790 339 c 128,-1,26
 801 328 801 328 801 314 c 2,27,-1
 801 243 l 2,28,29
 801 229 801 229 790 218 c 128,-1,30
 779 207 779 207 765 207 c 2,31,-1
 51 207 l 2,16,17
51 421 m 2,32,33
 37 421 37 421 26 432 c 128,-1,34
 15 443 15 443 15 457 c 2,35,-1
 15 529 l 2,36,37
 15 543 15 543 26 553.5 c 128,-1,38
 37 564 37 564 51 564 c 2,39,-1
 908 564 l 2,40,41
 922 564 922 564 933 553.5 c 128,-1,42
 944 543 944 543 944 529 c 2,43,-1
 944 457 l 2,44,45
 944 443 944 443 933 432 c 128,-1,46
 922 421 922 421 908 421 c 2,47,-1
 51 421 l 2,32,33
15 671 m 2,48,-1
 15 743 l 2,49,50
 15 757 15 757 26 768 c 128,-1,51
 37 779 37 779 51 779 c 2,52,-1
 694 779 l 2,53,54
 708 779 708 779 718.5 768 c 128,-1,55
 729 757 729 757 729 743 c 2,56,-1
 729 671 l 2,57,58
 729 657 729 657 718.5 646.5 c 128,-1,59
 708 636 708 636 694 636 c 2,60,-1
 51 636 l 2,61,62
 37 636 37 636 26 646.5 c 128,-1,63
 15 657 15 657 15 671 c 2,48,-1
EndSplineSet
Validated: 1
EndChar

StartChar: uniE77F
Encoding: 59263 59263 30
Width: 1030
Flags: W
LayerCount: 2
Fore
SplineSet
51 -7 m 2,0,1
 37 -7 37 -7 26 4 c 128,-1,2
 15 15 15 15 15 29 c 2,3,-1
 15 100 l 2,4,5
 15 114 15 114 26 125 c 128,-1,6
 37 136 37 136 51 136 c 2,7,-1
 979 136 l 2,8,9
 993 136 993 136 1004 125 c 128,-1,10
 1015 114 1015 114 1015 100 c 2,11,-1
 1015 29 l 2,12,13
 1015 15 1015 15 1004 4 c 128,-1,14
 993 -7 993 -7 979 -7 c 2,15,-1
 51 -7 l 2,0,1
122 421 m 2,16,17
 108 421 108 421 97 432 c 128,-1,18
 86 443 86 443 86 457 c 2,19,-1
 86 529 l 2,20,21
 86 543 86 543 97 553.5 c 128,-1,22
 108 564 108 564 122 564 c 2,23,-1
 908 564 l 2,24,25
 922 564 922 564 933 553.5 c 128,-1,26
 944 543 944 543 944 529 c 2,27,-1
 944 457 l 2,28,29
 944 443 944 443 933 432 c 128,-1,30
 922 421 922 421 908 421 c 2,31,-1
 122 421 l 2,16,17
265 207 m 2,32,33
 251 207 251 207 240 218 c 128,-1,34
 229 229 229 229 229 243 c 2,35,-1
 229 314 l 2,36,37
 229 328 229 328 240 339 c 128,-1,38
 251 350 251 350 265 350 c 2,39,-1
 765 350 l 2,40,41
 779 350 779 350 790 339 c 128,-1,42
 801 328 801 328 801 314 c 2,43,-1
 801 243 l 2,44,45
 801 229 801 229 790 218 c 128,-1,46
 779 207 779 207 765 207 c 2,47,-1
 265 207 l 2,32,33
301 671 m 2,48,-1
 301 743 l 2,49,50
 301 757 301 757 311.5 768 c 128,-1,51
 322 779 322 779 336 779 c 2,52,-1
 694 779 l 2,53,54
 708 779 708 779 718.5 768 c 128,-1,55
 729 757 729 757 729 743 c 2,56,-1
 729 671 l 2,57,58
 729 657 729 657 718.5 646.5 c 128,-1,59
 708 636 708 636 694 636 c 2,60,-1
 336 636 l 2,61,62
 322 636 322 636 311.5 646.5 c 128,-1,63
 301 657 301 657 301 671 c 2,48,-1
EndSplineSet
Validated: 1
EndChar

StartChar: uniE780
Encoding: 59264 59264 31
Width: 1030
Flags: W
LayerCount: 2
Fore
SplineSet
51 -7 m 2,0,1
 37 -7 37 -7 26 4 c 128,-1,2
 15 15 15 15 15 29 c 2,3,-1
 15 100 l 2,4,5
 15 114 15 114 26 125 c 128,-1,6
 37 136 37 136 51 136 c 2,7,-1
 979 136 l 2,8,9
 993 136 993 136 1004 125 c 128,-1,10
 1015 114 1015 114 1015 100 c 2,11,-1
 1015 29 l 2,12,13
 1015 15 1015 15 1004 4 c 128,-1,14
 993 -7 993 -7 979 -7 c 2,15,-1
 51 -7 l 2,0,1
122 421 m 2,16,17
 108 421 108 421 97 432 c 128,-1,18
 86 443 86 443 86 457 c 2,19,-1
 86 529 l 2,20,21
 86 543 86 543 97 553.5 c 128,-1,22
 108 564 108 564 122 564 c 2,23,-1
 979 564 l 2,24,25
 993 564 993 564 1004 553.5 c 128,-1,26
 1015 543 1015 543 1015 529 c 2,27,-1
 1015 457 l 2,28,29
 1015 443 1015 443 1004 432 c 128,-1,30
 993 421 993 421 979 421 c 2,31,-1
 122 421 l 2,16,17
265 207 m 2,32,33
 251 207 251 207 240 218 c 128,-1,34
 229 229 229 229 229 243 c 2,35,-1
 229 314 l 2,36,37
 229 328 229 328 240 339 c 128,-1,38
 251 350 251 350 265 350 c 2,39,-1
 979 350 l 2,40,41
 993 350 993 350 1004 339 c 128,-1,42
 1015 328 1015 328 1015 314 c 2,43,-1
 1015 243 l 2,44,45
 1015 229 1015 229 1004 218 c 128,-1,46
 993 207 993 207 979 207 c 2,47,-1
 265 207 l 2,32,33
301 671 m 2,48,-1
 301 743 l 2,49,50
 301 757 301 757 311.5 768 c 128,-1,51
 322 779 322 779 336 779 c 2,52,-1
 979 779 l 2,53,54
 993 779 993 779 1004 768 c 128,-1,55
 1015 757 1015 757 1015 743 c 2,56,-1
 1015 671 l 2,57,58
 1015 657 1015 657 1004 646.5 c 128,-1,59
 993 636 993 636 979 636 c 2,60,-1
 336 636 l 2,61,62
 322 636 322 636 311.5 646.5 c 128,-1,63
 301 657 301 657 301 671 c 2,48,-1
EndSplineSet
Validated: 1
EndChar

StartChar: uniE781
Encoding: 59265 59265 32
Width: 1030
Flags: W
LayerCount: 2
Fore
SplineSet
51 -7 m 2,0,1
 37 -7 37 -7 26 4 c 128,-1,2
 15 15 15 15 15 29 c 2,3,-1
 15 100 l 2,4,5
 15 114 15 114 26 125 c 128,-1,6
 37 136 37 136 51 136 c 2,7,-1
 979 136 l 2,8,9
 993 136 993 136 1004 125 c 128,-1,10
 1015 114 1015 114 1015 100 c 2,11,-1
 1015 29 l 2,12,13
 1015 15 1015 15 1004 4 c 128,-1,14
 993 -7 993 -7 979 -7 c 2,15,-1
 51 -7 l 2,0,1
51 207 m 2,16,17
 37 207 37 207 26 218 c 128,-1,18
 15 229 15 229 15 243 c 2,19,-1
 15 314 l 2,20,21
 15 328 15 328 26 339 c 128,-1,22
 37 350 37 350 51 350 c 2,23,-1
 979 350 l 2,24,25
 993 350 993 350 1004 339 c 128,-1,26
 1015 328 1015 328 1015 314 c 2,27,-1
 1015 243 l 2,28,29
 1015 229 1015 229 1004 218 c 128,-1,30
 993 207 993 207 979 207 c 2,31,-1
 51 207 l 2,16,17
51 421 m 2,32,33
 37 421 37 421 26 432 c 128,-1,34
 15 443 15 443 15 457 c 2,35,-1
 15 529 l 2,36,37
 15 543 15 543 26 553.5 c 128,-1,38
 37 564 37 564 51 564 c 2,39,-1
 979 564 l 2,40,41
 993 564 993 564 1004 553.5 c 128,-1,42
 1015 543 1015 543 1015 529 c 2,43,-1
 1015 457 l 2,44,45
 1015 443 1015 443 1004 432 c 128,-1,46
 993 421 993 421 979 421 c 2,47,-1
 51 421 l 2,32,33
15 671 m 2,48,-1
 15 743 l 2,49,50
 15 757 15 757 26 768 c 128,-1,51
 37 779 37 779 51 779 c 2,52,-1
 979 779 l 2,53,54
 993 779 993 779 1004 768 c 128,-1,55
 1015 757 1015 757 1015 743 c 2,56,-1
 1015 671 l 2,57,58
 1015 657 1015 657 1004 646.5 c 128,-1,59
 993 636 993 636 979 636 c 2,60,-1
 51 636 l 2,61,62
 37 636 37 636 26 646.5 c 128,-1,63
 15 657 15 657 15 671 c 2,48,-1
EndSplineSet
Validated: 1
EndChar

StartChar: uniE782
Encoding: 59266 59266 33
Width: 1030
Flags: W
LayerCount: 2
Fore
SplineSet
33 -7 m 2,0,1
 26 -7 26 -7 20.5 -1.5 c 128,-1,2
 15 4 15 4 15 11 c 2,3,-1
 15 118 l 2,4,5
 15 126 15 126 20.5 131 c 128,-1,6
 26 136 26 136 33 136 c 2,7,-1
 140 136 l 2,8,9
 148 136 148 136 153 131 c 128,-1,10
 158 126 158 126 158 118 c 2,11,-1
 158 11 l 2,12,13
 158 4 158 4 153 -1.5 c 128,-1,14
 148 -7 148 -7 140 -7 c 2,15,-1
 33 -7 l 2,0,1
33 207 m 2,16,17
 26 207 26 207 20.5 212.5 c 128,-1,18
 15 218 15 218 15 225 c 2,19,-1
 15 332 l 2,20,21
 15 340 15 340 20.5 345 c 128,-1,22
 26 350 26 350 33 350 c 2,23,-1
 140 350 l 2,24,25
 148 350 148 350 153 345 c 128,-1,26
 158 340 158 340 158 332 c 2,27,-1
 158 225 l 2,28,29
 158 218 158 218 153 212.5 c 128,-1,30
 148 207 148 207 140 207 c 2,31,-1
 33 207 l 2,16,17
33 421 m 2,32,33
 26 421 26 421 20.5 426.5 c 128,-1,34
 15 432 15 432 15 439 c 2,35,-1
 15 546 l 2,36,37
 15 554 15 554 20.5 559 c 128,-1,38
 26 564 26 564 33 564 c 2,39,-1
 140 564 l 2,40,41
 148 564 148 564 153 559 c 128,-1,42
 158 554 158 554 158 546 c 2,43,-1
 158 439 l 2,44,45
 158 432 158 432 153 426.5 c 128,-1,46
 148 421 148 421 140 421 c 2,47,-1
 33 421 l 2,32,33
33 636 m 2,48,49
 26 636 26 636 20.5 641 c 128,-1,50
 15 646 15 646 15 654 c 2,51,-1
 15 761 l 2,52,53
 15 768 15 768 20.5 773.5 c 128,-1,54
 26 779 26 779 33 779 c 2,55,-1
 140 779 l 2,56,57
 148 779 148 779 153 773.5 c 128,-1,58
 158 768 158 768 158 761 c 2,59,-1
 158 654 l 2,60,61
 158 646 158 646 153 641 c 128,-1,62
 148 636 148 636 140 636 c 2,63,-1
 33 636 l 2,48,49
247 -7 m 2,64,65
 240 -7 240 -7 234.5 -1.5 c 128,-1,66
 229 4 229 4 229 11 c 2,67,-1
 229 118 l 2,68,69
 229 126 229 126 234.5 131 c 128,-1,70
 240 136 240 136 247 136 c 2,71,-1
 997 136 l 2,72,73
 1004 136 1004 136 1009.5 131 c 128,-1,74
 1015 126 1015 126 1015 118 c 2,75,-1
 1015 11 l 2,76,77
 1015 4 1015 4 1009.5 -1.5 c 128,-1,78
 1004 -7 1004 -7 997 -7 c 2,79,-1
 247 -7 l 2,64,65
247 207 m 2,80,81
 240 207 240 207 234.5 212.5 c 128,-1,82
 229 218 229 218 229 225 c 2,83,-1
 229 332 l 2,84,85
 229 340 229 340 234.5 345 c 128,-1,86
 240 350 240 350 247 350 c 2,87,-1
 997 350 l 2,88,89
 1004 350 1004 350 1009.5 345 c 128,-1,90
 1015 340 1015 340 1015 332 c 2,91,-1
 1015 225 l 2,92,93
 1015 218 1015 218 1009.5 212.5 c 128,-1,94
 1004 207 1004 207 997 207 c 2,95,-1
 247 207 l 2,80,81
247 421 m 2,96,97
 240 421 240 421 234.5 426.5 c 128,-1,98
 229 432 229 432 229 439 c 2,99,-1
 229 546 l 2,100,101
 229 554 229 554 234.5 559 c 128,-1,102
 240 564 240 564 247 564 c 2,103,-1
 997 564 l 2,104,105
 1004 564 1004 564 1009.5 559 c 128,-1,106
 1015 554 1015 554 1015 546 c 2,107,-1
 1015 439 l 2,108,109
 1015 432 1015 432 1009.5 426.5 c 128,-1,110
 1004 421 1004 421 997 421 c 2,111,-1
 247 421 l 2,96,97
229 654 m 2,112,-1
 229 761 l 2,113,114
 229 768 229 768 234.5 773.5 c 128,-1,115
 240 779 240 779 247 779 c 2,116,-1
 997 779 l 2,117,118
 1004 779 1004 779 1009.5 773.5 c 128,-1,119
 1015 768 1015 768 1015 761 c 2,120,-1
 1015 654 l 2,121,122
 1015 646 1015 646 1009.5 641 c 128,-1,123
 1004 636 1004 636 997 636 c 2,124,-1
 247 636 l 2,125,126
 240 636 240 636 234.5 641 c 128,-1,127
 229 646 229 646 229 654 c 2,112,-1
EndSplineSet
Validated: 1
EndChar

StartChar: uniE783
Encoding: 59267 59267 34
Width: 1030
Flags: W
LayerCount: 2
Fore
SplineSet
33 -7 m 2,0,1
 26 -7 26 -7 20.5 -1.5 c 128,-1,2
 15 4 15 4 15 11 c 2,3,-1
 15 118 l 2,4,5
 15 126 15 126 20.5 131 c 128,-1,6
 26 136 26 136 33 136 c 2,7,-1
 997 136 l 2,8,9
 1004 136 1004 136 1009.5 131 c 128,-1,10
 1015 126 1015 126 1015 118 c 2,11,-1
 1015 11 l 2,12,13
 1015 4 1015 4 1009.5 -1.5 c 128,-1,14
 1004 -7 1004 -7 997 -7 c 2,15,-1
 33 -7 l 2,0,1
33 636 m 2,16,17
 26 636 26 636 20.5 641 c 128,-1,18
 15 646 15 646 15 654 c 2,19,-1
 15 761 l 2,20,21
 15 768 15 768 20.5 773.5 c 128,-1,22
 26 779 26 779 33 779 c 2,23,-1
 997 779 l 2,24,25
 1004 779 1004 779 1009.5 773.5 c 128,-1,26
 1015 768 1015 768 1015 761 c 2,27,-1
 1015 654 l 2,28,29
 1015 646 1015 646 1009.5 641 c 128,-1,30
 1004 636 1004 636 997 636 c 2,31,-1
 33 636 l 2,16,17
229 225 m 2,32,33
 229 218 229 218 223.5 212.5 c 128,-1,34
 218 207 218 207 211 207 c 128,-1,35
 204 207 204 207 199 212 c 2,36,-1
 38 373 l 2,37,38
 33 378 33 378 33 386 c 128,-1,39
 33 394 33 394 38 399 c 2,40,-1
 199 559 l 2,41,42
 204 564 204 564 211 564 c 128,-1,43
 218 564 218 564 223.5 559 c 128,-1,44
 229 554 229 554 229 546 c 2,45,-1
 229 225 l 2,32,33
390 207 m 2,46,47
 382 207 382 207 377 212.5 c 128,-1,48
 372 218 372 218 372 225 c 2,49,-1
 372 332 l 2,50,51
 372 340 372 340 377 345 c 128,-1,52
 382 350 382 350 390 350 c 2,53,-1
 997 350 l 2,54,55
 1004 350 1004 350 1009.5 345 c 128,-1,56
 1015 340 1015 340 1015 332 c 2,57,-1
 1015 225 l 2,58,59
 1015 218 1015 218 1009.5 212.5 c 128,-1,60
 1004 207 1004 207 997 207 c 2,61,-1
 390 207 l 2,46,47
372 439 m 2,62,-1
 372 546 l 2,63,64
 372 554 372 554 377 559 c 128,-1,65
 382 564 382 564 390 564 c 2,66,-1
 997 564 l 2,67,68
 1004 564 1004 564 1009.5 559 c 128,-1,69
 1015 554 1015 554 1015 546 c 2,70,-1
 1015 439 l 2,71,72
 1015 432 1015 432 1009.5 426.5 c 128,-1,73
 1004 421 1004 421 997 421 c 2,74,-1
 390 421 l 2,75,76
 382 421 382 421 377 426.5 c 128,-1,77
 372 432 372 432 372 439 c 2,62,-1
EndSplineSet
Validated: 1
EndChar

StartChar: uniE784
Encoding: 59268 59268 35
Width: 1030
Flags: W
LayerCount: 2
Fore
SplineSet
33 -7 m 2,0,1
 26 -7 26 -7 20.5 -1.5 c 128,-1,2
 15 4 15 4 15 11 c 2,3,-1
 15 118 l 2,4,5
 15 126 15 126 20.5 131 c 128,-1,6
 26 136 26 136 33 136 c 2,7,-1
 997 136 l 2,8,9
 1004 136 1004 136 1009.5 131 c 128,-1,10
 1015 126 1015 126 1015 118 c 2,11,-1
 1015 11 l 2,12,13
 1015 4 1015 4 1009.5 -1.5 c 128,-1,14
 1004 -7 1004 -7 997 -7 c 2,15,-1
 33 -7 l 2,0,1
33 207 m 0,16,17
 26 207 26 207 20.5 212.5 c 128,-1,18
 15 218 15 218 15 225 c 2,19,-1
 15 546 l 2,20,21
 15 554 15 554 20.5 559 c 128,-1,22
 26 564 26 564 33 564 c 0,23,24
 41 564 41 564 46 559 c 2,25,-1
 206 399 l 2,26,27
 211 394 211 394 211 386 c 128,-1,28
 211 378 211 378 206 373 c 2,29,-1
 46 212 l 2,30,31
 41 207 41 207 33 207 c 0,16,17
33 636 m 2,32,33
 26 636 26 636 20.5 641 c 128,-1,34
 15 646 15 646 15 654 c 2,35,-1
 15 761 l 2,36,37
 15 768 15 768 20.5 773.5 c 128,-1,38
 26 779 26 779 33 779 c 2,39,-1
 997 779 l 2,40,41
 1004 779 1004 779 1009.5 773.5 c 128,-1,42
 1015 768 1015 768 1015 761 c 2,43,-1
 1015 654 l 2,44,45
 1015 646 1015 646 1009.5 641 c 128,-1,46
 1004 636 1004 636 997 636 c 2,47,-1
 33 636 l 2,32,33
390 207 m 2,48,49
 382 207 382 207 377 212.5 c 128,-1,50
 372 218 372 218 372 225 c 2,51,-1
 372 332 l 2,52,53
 372 340 372 340 377 345 c 128,-1,54
 382 350 382 350 390 350 c 2,55,-1
 997 350 l 2,56,57
 1004 350 1004 350 1009.5 345 c 128,-1,58
 1015 340 1015 340 1015 332 c 2,59,-1
 1015 225 l 2,60,61
 1015 218 1015 218 1009.5 212.5 c 128,-1,62
 1004 207 1004 207 997 207 c 2,63,-1
 390 207 l 2,48,49
372 439 m 2,64,-1
 372 546 l 2,65,66
 372 554 372 554 377 559 c 128,-1,67
 382 564 382 564 390 564 c 2,68,-1
 997 564 l 2,69,70
 1004 564 1004 564 1009.5 559 c 128,-1,71
 1015 554 1015 554 1015 546 c 2,72,-1
 1015 439 l 2,73,74
 1015 432 1015 432 1009.5 426.5 c 128,-1,75
 1004 421 1004 421 997 421 c 2,76,-1
 390 421 l 2,77,78
 382 421 382 421 377 426.5 c 128,-1,79
 372 432 372 432 372 439 c 2,64,-1
EndSplineSet
Validated: 1
EndChar

StartChar: uniE831
Encoding: 59441 59441 36
Width: 1030
Flags: W
LayerCount: 2
Fore
SplineSet
78 140 m 2,0,1
 74 137 74 137 67.5 138.5 c 128,-1,2
 61 140 61 140 60 145 c 1,3,4
 36 195 36 195 24 257 c 0,5,6
 -6 413 -6 413 59 556 c 0,7,8
 64 568 64 568 76 560 c 2,9,-1
 156 501 l 1,10,11
 165 496 165 496 160 487 c 1,12,13
 135 424 135 424 135 351.5 c 128,-1,14
 135 279 135 279 161 209 c 0,15,16
 164 201 164 201 158 196 c 2,17,-1
 78 140 l 2,0,1
180 719 m 0,18,19
 225 759 225 759 278 788 c 0,20,21
 420 866 420 866 575 848 c 0,22,23
 588 846 588 846 584 833 c 2,24,-1
 553 739 l 2,25,26
 550 729 550 729 540 731 c 1,27,28
 502 734 502 734 460 727 c 0,29,30
 353 710 353 710 274 644 c 0,31,32
 267 639 267 639 260 644 c 2,33,-1
 181 701 l 2,34,35
 170 709 170 709 180 719 c 0,18,19
769 784 m 0,36,37
 861 732 861 732 926.5 645 c 128,-1,38
 992 558 992 558 1014 452 c 0,39,40
 1016 439 1016 439 1003 439 c 1,41,-1
 1003 438 l 1,42,-1
 903 439 l 2,43,44
 894 439 894 439 892 449 c 0,45,46
 855 591 855 591 726 673 c 0,47,48
 718 678 718 678 721 686 c 2,49,-1
 752 777 l 2,50,51
 754 782 754 782 759 784.5 c 128,-1,52
 764 787 764 787 769 784 c 0,36,37
1013 249 m 1,53,54
 999 186 999 186 976 137 c 0,55,56
 908 -8 908 -8 771 -85 c 0,57,58
 766 -88 766 -88 761 -85.5 c 128,-1,59
 756 -83 756 -83 754 -78 c 2,60,61
 754 -78 754 -78 739 -31 c 2,62,-1
 724 16 l 2,63,64
 721 25 721 25 730 30 c 0,65,66
 789 67 789 67 832 126 c 128,-1,67
 875 185 875 185 893 255 c 0,68,69
 895 264 895 264 904 264 c 2,70,-1
 1002 263 l 2,71,72
 1013 263 1013 263 1013 251 c 2,73,-1
 1013 249 l 1,53,54
575 -146 m 0,74,75
 513 -152 513 -152 456 -145 c 0,76,77
 295 -126 295 -126 180 -21 c 0,78,79
 176 -17 176 -17 176.5 -11.5 c 128,-1,80
 177 -6 177 -6 181 -3 c 2,81,-1
 262 54 l 2,82,83
 271 60 271 60 278 53 c 0,84,85
 311 26 311 26 344 10 c 0,86,87
 437 -37 437 -37 544 -31 c 0,88,89
 553 -31 553 -31 556 -39 c 2,90,-1
 585 -131 l 2,91,92
 589 -144 589 -144 575 -146 c 0,74,75
EndSplineSet
Validated: 33
EndChar

StartChar: uniF0CA
Encoding: 61642 61642 37
Width: 1030
Flags: W
LayerCount: 2
Fore
SplineSet
15 64 m 128,-1,1
 15 108 15 108 46.5 139.5 c 128,-1,2
 78 171 78 171 122 171 c 128,-1,3
 166 171 166 171 197.5 139.5 c 128,-1,4
 229 108 229 108 229 64 c 128,-1,5
 229 20 229 20 197.5 -11.5 c 128,-1,6
 166 -43 166 -43 122 -43 c 128,-1,7
 78 -43 78 -43 46.5 -11.5 c 128,-1,0
 15 20 15 20 15 64 c 128,-1,1
15 350 m 128,-1,9
 15 394 15 394 46.5 425.5 c 128,-1,10
 78 457 78 457 122 457 c 128,-1,11
 166 457 166 457 197.5 425.5 c 128,-1,12
 229 394 229 394 229 350 c 128,-1,13
 229 306 229 306 197.5 274.5 c 128,-1,14
 166 243 166 243 122 243 c 128,-1,15
 78 243 78 243 46.5 274.5 c 128,-1,8
 15 306 15 306 15 350 c 128,-1,9
15 636 m 128,-1,17
 15 680 15 680 46.5 711.5 c 128,-1,18
 78 743 78 743 122 743 c 128,-1,19
 166 743 166 743 197.5 711.5 c 128,-1,20
 229 680 229 680 229 636 c 128,-1,21
 229 592 229 592 197.5 560.5 c 128,-1,22
 166 529 166 529 122 529 c 128,-1,23
 78 529 78 529 46.5 560.5 c 128,-1,16
 15 592 15 592 15 636 c 128,-1,17
319 -7 m 2,24,25
 312 -7 312 -7 306.5 -1.5 c 128,-1,26
 301 4 301 4 301 11 c 2,27,-1
 301 118 l 2,28,29
 301 126 301 126 306.5 131 c 128,-1,30
 312 136 312 136 319 136 c 2,31,-1
 997 136 l 2,32,33
 1004 136 1004 136 1009.5 131 c 128,-1,34
 1015 126 1015 126 1015 118 c 2,35,-1
 1015 11 l 2,36,37
 1015 4 1015 4 1009.5 -1.5 c 128,-1,38
 1004 -7 1004 -7 997 -7 c 2,39,-1
 319 -7 l 2,24,25
319 279 m 2,40,41
 301 279 301 279 301 296 c 2,42,-1
 301 404 l 2,43,44
 301 421 301 421 319 421 c 2,45,-1
 997 421 l 2,46,47
 1015 421 1015 421 1015 404 c 2,48,-1
 1015 296 l 2,49,50
 1015 279 1015 279 997 279 c 2,51,-1
 319 279 l 2,40,41
301 582 m 2,52,-1
 301 689 l 2,53,54
 301 696 301 696 306.5 701.5 c 128,-1,55
 312 707 312 707 319 707 c 2,56,-1
 997 707 l 2,57,58
 1004 707 1004 707 1009.5 701.5 c 128,-1,59
 1015 696 1015 696 1015 689 c 2,60,-1
 1015 582 l 2,61,62
 1015 574 1015 574 1009.5 569 c 128,-1,63
 1004 564 1004 564 997 564 c 2,64,-1
 319 564 l 2,65,66
 312 564 312 564 306.5 569 c 128,-1,67
 301 574 301 574 301 582 c 2,52,-1
EndSplineSet
Validated: 1
EndChar

StartChar: uniF0CB
Encoding: 61643 61643 38
Width: 1022
Flags: W
LayerCount: 2
Fore
SplineSet
117 493 m 0,0,1
 158 493 158 493 186 469.5 c 128,-1,2
 214 446 214 446 214 407 c 0,3,4
 214 380 214 380 195.5 356.5 c 128,-1,5
 177 333 177 333 153 320 c 1,6,7
 128 305 128 305 111 292 c 0,8,9
 91 277 91 277 91 262 c 1,10,-1
 162 262 l 1,11,-1
 162 296 l 1,12,-1
 220 296 l 1,13,-1
 220 207 l 1,14,-1
 18 207 l 1,15,16
 15 226 15 226 15 237 c 0,17,18
 15 273 15 273 32 297 c 128,-1,19
 49 321 49 321 84 345.5 c 128,-1,20
 119 370 119 370 128 378 c 0,21,22
 141 390 141 390 141 403 c 0,23,24
 141 432 141 432 111 432 c 0,25,26
 85 432 85 432 66 400 c 1,27,-1
 18 433 l 1,28,29
 31 460 31 460 56.5 476.5 c 128,-1,30
 82 493 82 493 117 493 c 0,0,1
219 -54 m 0,31,32
 219 -98 219 -98 189 -124 c 128,-1,33
 159 -150 159 -150 113 -150 c 0,34,35
 54 -150 54 -150 17 -113 c 1,36,-1
 49 -64 l 1,37,38
 75 -89 75 -89 108 -89 c 0,39,40
 125 -89 125 -89 136.5 -80.5 c 128,-1,41
 148 -72 148 -72 148 -57 c 0,42,43
 148 -22 148 -22 90 -26 c 1,44,-1
 75 5 l 1,45,46
 134 78 134 78 138 81 c 1,47,-1
 138 82 l 1,48,49
 133 82 133 82 111 81 c 128,-1,50
 89 80 89 80 84 80 c 1,51,-1
 84 51 l 1,52,-1
 24 51 l 1,53,-1
 24 136 l 1,54,-1
 210 136 l 1,55,-1
 210 87 l 1,56,-1
 157 22 l 1,57,58
 184 16 184 16 201.5 -4 c 128,-1,59
 219 -24 219 -24 219 -54 c 0,31,32
94 620 m 1,60,-1
 94 755 l 1,61,-1
 94 762 l 1,62,-1
 93 762 l 1,63,64
 88 752 88 752 65 732 c 1,65,-1
 26 774 l 1,66,-1
 101 845 l 1,67,-1
 161 845 l 1,68,-1
 161 620 l 1,69,-1
 221 620 l 1,70,-1
 221 564 l 1,71,-1
 34 564 l 1,72,-1
 34 620 l 1,73,-1
 94 620 l 1,60,-1
310 -7 m 2,74,75
 302 -7 302 -7 297 -1.5 c 128,-1,76
 292 4 292 4 292 11 c 2,77,-1
 292 118 l 2,78,79
 292 126 292 126 297 131 c 128,-1,80
 302 136 302 136 310 136 c 2,81,-1
 989 136 l 2,82,83
 996 136 996 136 1001.5 131 c 128,-1,84
 1007 126 1007 126 1007 118 c 2,85,-1
 1007 11 l 2,86,87
 1007 4 1007 4 1001.5 -1.5 c 128,-1,88
 996 -7 996 -7 989 -7 c 2,89,-1
 310 -7 l 2,74,75
310 279 m 2,90,91
 292 279 292 279 292 296 c 2,92,-1
 292 404 l 2,93,94
 292 421 292 421 310 421 c 2,95,-1
 989 421 l 2,96,97
 1007 421 1007 421 1007 404 c 2,98,-1
 1007 296 l 2,99,100
 1007 279 1007 279 989 279 c 2,101,-1
 310 279 l 2,90,91
292 582 m 2,102,-1
 292 689 l 2,103,104
 292 696 292 696 297 701.5 c 128,-1,105
 302 707 302 707 310 707 c 2,106,-1
 989 707 l 2,107,108
 996 707 996 707 1001.5 701.5 c 128,-1,109
 1007 696 1007 696 1007 689 c 2,110,-1
 1007 582 l 2,111,112
 1007 574 1007 574 1001.5 569 c 128,-1,113
 996 564 996 564 989 564 c 2,114,-1
 310 564 l 2,115,116
 302 564 302 564 297 569 c 128,-1,117
 292 574 292 574 292 582 c 2,102,-1
EndSplineSet
Validated: 33
EndChar

StartChar: uniF0DC
Encoding: 61660 61660 39
Width: 601
Flags: W
LayerCount: 2
Fore
SplineSet
15 243 m 128,-1,1
 15 257 15 257 26 268 c 128,-1,2
 37 279 37 279 51 279 c 2,3,-1
 551 279 l 2,4,5
 565 279 565 279 575.5 268 c 128,-1,6
 586 257 586 257 586 243 c 0,7,8
 586 228 586 228 576 218 c 2,9,-1
 326 -32 l 2,10,11
 315 -43 315 -43 301 -43 c 128,-1,12
 287 -43 287 -43 276 -32 c 2,13,-1
 26 218 l 2,14,0
 15 229 15 229 15 243 c 128,-1,1
15 457 m 128,-1,16
 15 471 15 471 26 482 c 2,17,-1
 276 732 l 2,18,19
 287 743 287 743 301 743 c 128,-1,20
 315 743 315 743 326 732 c 2,21,-1
 576 482 l 2,22,23
 586 472 586 472 586 457 c 0,24,25
 586 443 586 443 575.5 432 c 128,-1,26
 565 421 565 421 551 421 c 2,27,-1
 51 421 l 2,28,29
 37 421 37 421 26 432 c 128,-1,15
 15 443 15 443 15 457 c 128,-1,16
EndSplineSet
Validated: 1
EndChar

StartChar: uniF0DD
Encoding: 61661 61661 40
Width: 601
Flags: W
LayerCount: 2
Fore
SplineSet
15 243 m 128,-1,1
 15 257 15 257 26 268 c 128,-1,2
 37 279 37 279 51 279 c 2,3,-1
 551 279 l 2,4,5
 565 279 565 279 575.5 268 c 128,-1,6
 586 257 586 257 586 243 c 0,7,8
 586 228 586 228 576 218 c 2,9,-1
 326 -32 l 2,10,11
 315 -43 315 -43 301 -43 c 128,-1,12
 287 -43 287 -43 276 -32 c 2,13,-1
 26 218 l 2,14,0
 15 229 15 229 15 243 c 128,-1,1
EndSplineSet
Validated: 1
EndChar

StartChar: uniF0DE
Encoding: 61662 61662 41
Width: 601
Flags: W
LayerCount: 2
Fore
SplineSet
15 457 m 128,-1,1
 15 471 15 471 26 482 c 2,2,-1
 276 732 l 2,3,4
 287 743 287 743 301 743 c 128,-1,5
 315 743 315 743 326 732 c 2,6,-1
 576 482 l 2,7,8
 586 472 586 472 586 457 c 0,9,10
 586 443 586 443 575.5 432 c 128,-1,11
 565 421 565 421 551 421 c 2,12,-1
 51 421 l 2,13,14
 37 421 37 421 26 432 c 128,-1,0
 15 443 15 443 15 457 c 128,-1,1
EndSplineSet
Validated: 1
EndChar

StartChar: uniF0E5
Encoding: 61669 61669 42
Width: 1030
Flags: W
LayerCount: 2
Fore
SplineSet
111 -150 m 2,0,1
 93 -150 93 -150 87 -129 c 1,2,-1
 87 -128 l 1,3,4
 82 -121 82 -121 98 -101 c 1,5,6
 98 -101 98 -101 123 -73 c 0,7,8
 140 -54 140 -54 153 -37.5 c 128,-1,9
 166 -21 166 -21 174 -5 c 0,10,11
 195 37 195 37 204 70 c 1,12,13
 117 120 117 120 66 193 c 256,14,15
 15 266 15 266 15 350 c 0,16,17
 15 447 15 447 82 529 c 0,18,19
 147 610 147 610 262.5 658.5 c 128,-1,20
 378 707 378 707 515 707 c 128,-1,21
 652 707 652 707 767.5 658.5 c 128,-1,22
 883 610 883 610 948 529 c 0,23,24
 1015 447 1015 447 1015 350 c 128,-1,25
 1015 253 1015 253 948 171 c 0,26,27
 883 90 883 90 767.5 41.5 c 128,-1,28
 652 -7 652 -7 515 -7 c 0,29,30
 471 -7 471 -7 434 -3 c 1,31,32
 323 -100 323 -100 177 -138 c 0,33,34
 150 -146 150 -146 114 -150 c 1,35,-1
 111 -150 l 2,0,1
86 350 m 0,36,37
 86 287 86 287 126 231 c 0,38,39
 165 176 165 176 239 133 c 2,40,-1
 287 105 l 1,41,-1
 272 51 l 2,42,43
 258 0 258 0 233 -45 c 1,44,45
 314 -12 314 -12 387 51 c 2,46,-1
 411 72 l 1,47,-1
 442 69 l 2,48,49
 485 64 485 64 515 64 c 0,50,51
 630 64 630 64 729 103.5 c 128,-1,52
 828 143 828 143 885 208 c 0,53,54
 944 275 944 275 944 350 c 128,-1,55
 944 425 944 425 885 492 c 0,56,57
 828 557 828 557 729 596.5 c 128,-1,58
 630 636 630 636 515 636 c 0,59,60
 401 636 401 636 301.5 596.5 c 128,-1,61
 202 557 202 557 145 492 c 0,62,63
 86 425 86 425 86 350 c 0,36,37
EndSplineSet
Validated: 1
EndChar

StartChar: uniF100
Encoding: 61696 61696 43
Width: 569
Flags: W
LayerCount: 2
Fore
SplineSet
21 327 m 2,0,-1
 281 587 l 2,1,2
 287 593 287 593 293 593 c 0,3,4
 300 593 300 593 306 587 c 2,5,-1
 334 559 l 2,6,7
 340 553 340 553 340 546 c 0,8,9
 340 540 340 540 334 534 c 2,10,-1
 115 314 l 1,11,-1
 334 95 l 2,12,13
 340 89 340 89 340 82 c 128,-1,14
 340 75 340 75 334 69 c 2,15,-1
 306 41 l 2,16,17
 301 36 301 36 293 36 c 0,18,19
 286 36 286 36 281 41 c 2,20,-1
 21 301 l 2,21,22
 15 307 15 307 15 314 c 128,-1,23
 15 321 15 321 21 327 c 2,0,-1
229 314 m 128,-1,25
 229 321 229 321 235 327 c 2,26,-1
 495 587 l 2,27,28
 501 593 501 593 508 593 c 128,-1,29
 515 593 515 593 521 587 c 2,30,-1
 548 559 l 2,31,32
 554 553 554 553 554 546 c 0,33,34
 554 540 554 540 548 534 c 2,35,-1
 329 314 l 1,36,-1
 548 95 l 2,37,38
 554 89 554 89 554 82 c 128,-1,39
 554 75 554 75 548 69 c 2,40,-1
 521 41 l 2,41,42
 516 36 516 36 508 36 c 128,-1,43
 500 36 500 36 495 41 c 2,44,-1
 235 301 l 2,45,24
 229 307 229 307 229 314 c 128,-1,25
EndSplineSet
Validated: 1
EndChar

StartChar: uniF101
Encoding: 61697 61697 44
Width: 569
Flags: W
LayerCount: 2
Fore
SplineSet
21 95 m 2,0,-1
 240 314 l 1,1,-1
 21 534 l 2,2,3
 15 540 15 540 15 546 c 0,4,5
 15 553 15 553 21 559 c 2,6,-1
 48 587 l 2,7,8
 54 593 54 593 61 593 c 128,-1,9
 68 593 68 593 74 587 c 2,10,-1
 334 327 l 2,11,12
 340 321 340 321 340 314 c 128,-1,13
 340 307 340 307 334 301 c 2,14,-1
 74 41 l 2,15,16
 69 36 69 36 61 36 c 128,-1,17
 53 36 53 36 48 41 c 2,18,-1
 21 69 l 2,19,20
 15 75 15 75 15 82 c 128,-1,21
 15 89 15 89 21 95 c 2,0,-1
229 82 m 128,-1,23
 229 89 229 89 235 95 c 2,24,-1
 454 314 l 1,25,-1
 235 534 l 2,26,27
 229 540 229 540 229 546 c 0,28,29
 229 553 229 553 235 559 c 2,30,-1
 263 587 l 2,31,32
 269 593 269 593 276 593 c 0,33,34
 282 593 282 593 288 587 c 2,35,-1
 548 327 l 2,36,37
 554 321 554 321 554 314 c 128,-1,38
 554 307 554 307 548 301 c 2,39,-1
 288 41 l 2,40,41
 283 36 283 36 276 36 c 0,42,43
 268 36 268 36 263 41 c 2,44,-1
 235 69 l 2,45,22
 229 75 229 75 229 82 c 128,-1,23
EndSplineSet
Validated: 1
EndChar

StartChar: uniF102
Encoding: 61698 61698 45
Width: 587
Flags: W
LayerCount: 2
Fore
SplineSet
21 131 m 2,0,-1
 281 391 l 2,1,2
 286 396 286 396 293 396 c 0,3,4
 301 396 301 396 306 391 c 2,5,-1
 566 131 l 2,6,7
 572 125 572 125 572 118 c 128,-1,8
 572 111 572 111 566 105 c 2,9,-1
 538 77 l 2,10,11
 533 72 533 72 526 72 c 0,12,13
 518 72 518 72 513 77 c 2,14,-1
 293 296 l 1,15,-1
 74 77 l 2,16,17
 69 72 69 72 61 72 c 128,-1,18
 53 72 53 72 48 77 c 2,19,-1
 21 105 l 2,20,21
 15 111 15 111 15 118 c 128,-1,22
 15 125 15 125 21 131 c 2,0,-1
15 332 m 128,-1,24
 15 339 15 339 21 345 c 2,25,-1
 281 605 l 2,26,27
 287 611 287 611 293 611 c 0,28,29
 300 611 300 611 306 605 c 2,30,-1
 566 345 l 2,31,32
 572 339 572 339 572 332 c 128,-1,33
 572 325 572 325 566 319 c 2,34,-1
 538 291 l 2,35,36
 533 286 533 286 526 286 c 0,37,38
 518 286 518 286 513 291 c 2,39,-1
 293 511 l 1,40,-1
 74 291 l 2,41,42
 69 286 69 286 61 286 c 128,-1,43
 53 286 53 286 48 291 c 2,44,-1
 21 319 l 2,45,23
 15 325 15 325 15 332 c 128,-1,24
EndSplineSet
Validated: 1
EndChar

StartChar: uniF103
Encoding: 61699 61699 46
Width: 587
Flags: W
LayerCount: 2
Fore
SplineSet
21 381 m 2,0,-1
 48 409 l 2,1,2
 53 414 53 414 61 414 c 128,-1,3
 69 414 69 414 74 409 c 2,4,-1
 293 189 l 1,5,-1
 513 409 l 2,6,7
 518 414 518 414 526 414 c 0,8,9
 533 414 533 414 538 409 c 2,10,-1
 566 381 l 2,11,12
 572 375 572 375 572 368 c 128,-1,13
 572 361 572 361 566 355 c 2,14,-1
 306 95 l 2,15,16
 300 89 300 89 293 89 c 0,17,18
 287 89 287 89 281 95 c 2,19,-1
 21 355 l 2,20,21
 15 361 15 361 15 368 c 128,-1,22
 15 375 15 375 21 381 c 2,0,-1
15 582 m 128,-1,24
 15 589 15 589 21 595 c 2,25,-1
 48 623 l 2,26,27
 53 628 53 628 61 628 c 128,-1,28
 69 628 69 628 74 623 c 2,29,-1
 293 404 l 1,30,-1
 513 623 l 2,31,32
 518 628 518 628 526 628 c 0,33,34
 533 628 533 628 538 623 c 2,35,-1
 566 595 l 2,36,37
 572 589 572 589 572 582 c 128,-1,38
 572 575 572 575 566 569 c 2,39,-1
 306 309 l 2,40,41
 301 304 301 304 293 304 c 0,42,43
 286 304 286 304 281 309 c 2,44,-1
 21 569 l 2,45,23
 15 575 15 575 15 582 c 128,-1,24
EndSplineSet
Validated: 1
EndChar

StartChar: uniF104
Encoding: 61700 61700 47
Width: 355
Flags: W
LayerCount: 2
Fore
SplineSet
15 314 m 128,-1,1
 15 321 15 321 21 327 c 2,2,-1
 281 587 l 2,3,4
 287 593 287 593 293 593 c 0,5,6
 300 593 300 593 306 587 c 2,7,-1
 334 559 l 2,8,9
 340 553 340 553 340 546 c 0,10,11
 340 540 340 540 334 534 c 2,12,-1
 115 314 l 1,13,-1
 334 95 l 2,14,15
 340 89 340 89 340 82 c 128,-1,16
 340 75 340 75 334 69 c 2,17,-1
 306 41 l 2,18,19
 301 36 301 36 293 36 c 0,20,21
 286 36 286 36 281 41 c 2,22,-1
 21 301 l 2,23,0
 15 307 15 307 15 314 c 128,-1,1
EndSplineSet
Validated: 1
EndChar

StartChar: uniF105
Encoding: 61701 61701 48
Width: 355
Flags: W
LayerCount: 2
Fore
SplineSet
15 82 m 128,-1,1
 15 89 15 89 21 95 c 2,2,-1
 240 314 l 1,3,-1
 21 534 l 2,4,5
 15 540 15 540 15 546 c 0,6,7
 15 553 15 553 21 559 c 2,8,-1
 48 587 l 2,9,10
 54 593 54 593 61 593 c 128,-1,11
 68 593 68 593 74 587 c 2,12,-1
 334 327 l 2,13,14
 340 321 340 321 340 314 c 128,-1,15
 340 307 340 307 334 301 c 2,16,-1
 74 41 l 2,17,18
 69 36 69 36 61 36 c 128,-1,19
 53 36 53 36 48 41 c 2,20,-1
 21 69 l 2,21,0
 15 75 15 75 15 82 c 128,-1,1
EndSplineSet
Validated: 1
EndChar

StartChar: uniF106
Encoding: 61702 61702 49
Width: 587
Flags: W
LayerCount: 2
Fore
SplineSet
15 189 m 128,-1,1
 15 196 15 196 21 202 c 2,2,-1
 281 462 l 2,3,4
 287 468 287 468 293 468 c 0,5,6
 300 468 300 468 306 462 c 2,7,-1
 566 202 l 2,8,9
 572 196 572 196 572 189 c 128,-1,10
 572 182 572 182 566 176 c 2,11,-1
 538 149 l 2,12,13
 532 143 532 143 526 143 c 0,14,15
 519 143 519 143 513 149 c 2,16,-1
 293 368 l 1,17,-1
 74 149 l 2,18,19
 68 143 68 143 61 143 c 128,-1,20
 54 143 54 143 48 149 c 2,21,-1
 21 176 l 2,22,0
 15 182 15 182 15 189 c 128,-1,1
EndSplineSet
Validated: 1
EndChar

StartChar: uniF107
Encoding: 61703 61703 50
Width: 587
Flags: W
LayerCount: 2
Fore
SplineSet
15 439 m 128,-1,1
 15 446 15 446 21 452 c 2,2,-1
 48 480 l 2,3,4
 54 486 54 486 61 486 c 128,-1,5
 68 486 68 486 74 480 c 2,6,-1
 293 261 l 1,7,-1
 513 480 l 2,8,9
 519 486 519 486 526 486 c 0,10,11
 532 486 532 486 538 480 c 2,12,-1
 566 452 l 2,13,14
 572 446 572 446 572 439 c 128,-1,15
 572 432 572 432 566 426 c 2,16,-1
 306 166 l 2,17,18
 301 161 301 161 293 161 c 0,19,20
 286 161 286 161 281 166 c 2,21,-1
 21 426 l 2,22,0
 15 432 15 432 15 439 c 128,-1,1
EndSplineSet
Validated: 1
EndChar

StartChar: uniF10D
Encoding: 61709 61709 51
Width: 959
Flags: W
LayerCount: 2
Fore
SplineSet
122 -7 m 2,0,1
 78 -7 78 -7 46.5 24.5 c 128,-1,2
 15 56 15 56 15 100 c 2,3,-1
 15 493 l 2,4,5
 15 611 15 611 99 695 c 128,-1,6
 183 779 183 779 301 779 c 2,7,-1
 336 779 l 2,8,9
 350 779 350 779 361 768 c 128,-1,10
 372 757 372 757 372 743 c 2,11,-1
 372 671 l 2,12,13
 372 657 372 657 361 646.5 c 128,-1,14
 350 636 350 636 336 636 c 2,15,-1
 301 636 l 2,16,17
 242 636 242 636 200 594 c 128,-1,18
 158 552 158 552 158 493 c 2,19,-1
 158 475 l 2,20,21
 158 452 158 452 173.5 436.5 c 128,-1,22
 189 421 189 421 211 421 c 2,23,-1
 336 421 l 2,24,25
 380 421 380 421 412 389.5 c 128,-1,26
 444 358 444 358 444 314 c 2,27,-1
 444 100 l 2,28,29
 444 56 444 56 412 24.5 c 128,-1,30
 380 -7 380 -7 336 -7 c 2,31,-1
 122 -7 l 2,0,1
515 100 m 2,32,-1
 515 493 l 2,33,34
 515 611 515 611 599 695 c 128,-1,35
 683 779 683 779 801 779 c 2,36,-1
 836 779 l 2,37,38
 850 779 850 779 861 768 c 128,-1,39
 872 757 872 757 872 743 c 2,40,-1
 872 671 l 2,41,42
 872 657 872 657 861 646.5 c 128,-1,43
 850 636 850 636 836 636 c 2,44,-1
 801 636 l 2,45,46
 742 636 742 636 700 594 c 128,-1,47
 658 552 658 552 658 493 c 2,48,-1
 658 475 l 2,49,50
 658 452 658 452 673.5 436.5 c 128,-1,51
 689 421 689 421 711 421 c 2,52,-1
 836 421 l 2,53,54
 880 421 880 421 912 389.5 c 128,-1,55
 944 358 944 358 944 314 c 2,56,-1
 944 100 l 2,57,58
 944 56 944 56 912 24.5 c 128,-1,59
 880 -7 880 -7 836 -7 c 2,60,-1
 622 -7 l 2,61,62
 578 -7 578 -7 546.5 24.5 c 128,-1,63
 515 56 515 56 515 100 c 2,32,-1
EndSplineSet
Validated: 1
EndChar

StartChar: uniF10E
Encoding: 61710 61710 52
Width: 959
Flags: W
LayerCount: 2
Fore
SplineSet
122 350 m 2,0,1
 78 350 78 350 46.5 381.5 c 128,-1,2
 15 413 15 413 15 457 c 2,3,-1
 15 671 l 2,4,5
 15 715 15 715 46.5 747 c 128,-1,6
 78 779 78 779 122 779 c 2,7,-1
 336 779 l 2,8,9
 380 779 380 779 412 747 c 128,-1,10
 444 715 444 715 444 671 c 2,11,-1
 444 279 l 2,12,13
 444 161 444 161 360 77 c 128,-1,14
 276 -7 276 -7 158 -7 c 2,15,-1
 122 -7 l 2,16,17
 108 -7 108 -7 97 4 c 128,-1,18
 86 15 86 15 86 29 c 2,19,-1
 86 100 l 2,20,21
 86 114 86 114 97 125 c 128,-1,22
 108 136 108 136 122 136 c 2,23,-1
 158 136 l 2,24,25
 216 136 216 136 258.5 178 c 128,-1,26
 301 220 301 220 301 279 c 2,27,-1
 301 296 l 2,28,29
 301 318 301 318 285.5 334 c 128,-1,30
 270 350 270 350 247 350 c 2,31,-1
 122 350 l 2,0,1
515 457 m 2,32,-1
 515 671 l 2,33,34
 515 715 515 715 546.5 747 c 128,-1,35
 578 779 578 779 622 779 c 2,36,-1
 836 779 l 2,37,38
 880 779 880 779 912 747 c 128,-1,39
 944 715 944 715 944 671 c 2,40,-1
 944 279 l 2,41,42
 944 161 944 161 860 77 c 128,-1,43
 776 -7 776 -7 658 -7 c 2,44,-1
 622 -7 l 2,45,46
 608 -7 608 -7 597 4 c 128,-1,47
 586 15 586 15 586 29 c 2,48,-1
 586 100 l 2,49,50
 586 114 586 114 597 125 c 128,-1,51
 608 136 608 136 622 136 c 2,52,-1
 658 136 l 2,53,54
 716 136 716 136 758.5 178 c 128,-1,55
 801 220 801 220 801 279 c 2,56,-1
 801 296 l 2,57,58
 801 318 801 318 785.5 334 c 128,-1,59
 770 350 770 350 747 350 c 2,60,-1
 622 350 l 2,61,62
 578 350 578 350 546.5 381.5 c 128,-1,63
 515 413 515 413 515 457 c 2,32,-1
EndSplineSet
Validated: 1
EndChar

StartChar: u1F304
Encoding: 127748 127748 53
Width: 1101
Flags: W
LayerCount: 2
Fore
SplineSet
104 -79 m 2,0,1
 67 -79 67 -79 41 -52.5 c 128,-1,2
 15 -26 15 -26 15 11 c 2,3,-1
 15 689 l 2,4,5
 15 726 15 726 41 752.5 c 128,-1,6
 67 779 67 779 104 779 c 2,7,-1
 997 779 l 2,8,9
 1034 779 1034 779 1060 752.5 c 128,-1,10
 1086 726 1086 726 1086 689 c 2,11,-1
 1086 11 l 2,12,13
 1086 -26 1086 -26 1060 -52.5 c 128,-1,14
 1034 -79 1034 -79 997 -79 c 2,15,-1
 104 -79 l 2,0,1
86 11 m 2,16,17
 86 4 86 4 91 -1.5 c 128,-1,18
 96 -7 96 -7 104 -7 c 2,19,-1
 997 -7 l 2,20,21
 1004 -7 1004 -7 1009.5 -1.5 c 128,-1,22
 1015 4 1015 4 1015 11 c 2,23,-1
 1015 689 l 2,24,25
 1015 696 1015 696 1009.5 701.5 c 128,-1,26
 1004 707 1004 707 997 707 c 2,27,-1
 104 707 l 2,28,29
 96 707 96 707 91 701.5 c 128,-1,30
 86 696 86 696 86 689 c 2,31,-1
 86 11 l 2,16,17
158 171 m 1,32,-1
 336 350 l 1,33,-1
 426 261 l 1,34,-1
 711 546 l 1,35,-1
 944 314 l 1,36,-1
 944 64 l 1,37,-1
 158 64 l 1,38,-1
 158 171 l 1,32,-1
158 529 m 128,-1,40
 158 573 158 573 189.5 604.5 c 128,-1,41
 221 636 221 636 265 636 c 128,-1,42
 309 636 309 636 340.5 604.5 c 128,-1,43
 372 573 372 573 372 529 c 128,-1,44
 372 485 372 485 340.5 453 c 128,-1,45
 309 421 309 421 265 421 c 128,-1,46
 221 421 221 421 189.5 453 c 128,-1,39
 158 485 158 485 158 529 c 128,-1,40
EndSplineSet
Validated: 1
EndChar

StartChar: u1F464
Encoding: 128100 128100 54
Width: 816
Flags: W
LayerCount: 2
Fore
SplineSet
164 -79 m 2,0,1
 97 -79 97 -79 56 -39.5 c 128,-1,2
 15 0 15 0 15 66 c 0,3,4
 15 265 15 265 98 345 c 0,5,6
 141 386 141 386 208 386 c 0,7,8
 214 386 214 386 232 374 c 0,9,10
 263 354 263 354 282 343 c 128,-1,11
 301 332 301 332 337 320 c 128,-1,12
 373 308 373 308 408 308 c 0,13,14
 481 308 481 308 543 347 c 1,15,16
 543 347 543 347 564 361 c 2,17,-1
 584 374 l 2,18,19
 602 386 602 386 608 386 c 0,20,21
 756 386 756 386 791 185 c 0,22,23
 801 128 801 128 801 66 c 0,24,25
 801 0 801 0 760 -39.5 c 128,-1,26
 719 -79 719 -79 652 -79 c 2,27,-1
 164 -79 l 2,0,1
194 564 m 0,28,29
 194 654 194 654 256 716 c 0,30,31
 319 779 319 779 408 779 c 0,32,33
 496 779 496 779 559 716 c 128,-1,34
 622 653 622 653 622 564 c 0,35,36
 622 476 622 476 559 413 c 128,-1,37
 496 350 496 350 408 350 c 0,38,39
 319 350 319 350 256 413 c 0,40,41
 194 475 194 475 194 564 c 0,28,29
EndSplineSet
Validated: 1
EndChar

StartChar: u1F4BE
Encoding: 128190 128190 55
Width: 887
Flags: W
LayerCount: 2
Fore
SplineSet
69 -79 m 2,0,1
 46 -79 46 -79 30.5 -63.5 c 128,-1,2
 15 -48 15 -48 15 -25 c 2,3,-1
 15 725 l 2,4,5
 15 748 15 748 30.5 763.5 c 128,-1,6
 46 779 46 779 69 779 c 2,7,-1
 586 779 l 2,8,9
 609 779 609 779 636.5 767 c 128,-1,10
 664 755 664 755 678 741 c 2,11,-1
 834 584 l 2,12,13
 849 569 849 569 860.5 542.5 c 128,-1,14
 872 516 872 516 872 493 c 2,15,-1
 872 -25 l 2,16,17
 872 -48 872 -48 856.5 -63.5 c 128,-1,18
 841 -79 841 -79 819 -79 c 2,19,-1
 69 -79 l 2,0,1
211 421 m 2,20,21
 189 421 189 421 173.5 436.5 c 128,-1,22
 158 452 158 452 158 475 c 2,23,-1
 158 707 l 1,24,-1
 86 707 l 1,25,-1
 86 -7 l 1,26,-1
 158 -7 l 1,27,-1
 158 225 l 2,28,29
 158 248 158 248 173.5 263.5 c 128,-1,30
 189 279 189 279 211 279 c 2,31,-1
 676 279 l 2,32,33
 698 279 698 279 713.5 263.5 c 128,-1,34
 729 248 729 248 729 225 c 2,35,-1
 729 -7 l 1,36,-1
 801 -7 l 1,37,-1
 801 493 l 2,38,39
 801 501 801 501 795 515 c 128,-1,40
 789 529 789 529 784 534 c 2,41,-1
 627 690 l 2,42,43
 622 695 622 695 608 701 c 128,-1,44
 594 707 594 707 586 707 c 1,45,-1
 586 475 l 2,46,47
 586 452 586 452 570.5 436.5 c 128,-1,48
 555 421 555 421 533 421 c 2,49,-1
 211 421 l 2,20,21
658 -7 m 1,50,-1
 658 207 l 1,51,-1
 229 207 l 1,52,-1
 229 -7 l 1,53,-1
 658 -7 l 1,50,-1
372 511 m 2,54,55
 372 504 372 504 377 498.5 c 128,-1,56
 382 493 382 493 390 493 c 2,57,-1
 497 493 l 2,58,59
 504 493 504 493 509.5 498.5 c 128,-1,60
 515 504 515 504 515 511 c 2,61,-1
 515 689 l 2,62,63
 515 696 515 696 509.5 701.5 c 128,-1,64
 504 707 504 707 497 707 c 2,65,-1
 390 707 l 2,66,67
 382 707 382 707 377 701.5 c 128,-1,68
 372 696 372 696 372 689 c 2,69,-1
 372 511 l 2,54,55
EndSplineSet
Validated: 1
EndChar

StartChar: u1F4C4
Encoding: 128196 128196 56
Width: 744
Flags: W
LayerCount: 2
Fore
SplineSet
69 -79 m 2,0,1
 46 -79 46 -79 30.5 -63.5 c 128,-1,2
 15 -48 15 -48 15 -25 c 2,3,-1
 15 725 l 2,4,5
 15 748 15 748 30.5 763.5 c 128,-1,6
 46 779 46 779 69 779 c 2,7,-1
 372 779 l 2,8,9
 395 779 395 779 422.5 767 c 128,-1,10
 450 755 450 755 464 741 c 2,11,-1
 691 513 l 2,12,13
 705 499 705 499 717 472 c 128,-1,14
 729 445 729 445 729 421 c 2,15,-1
 729 -25 l 2,16,17
 729 -48 729 -48 713.5 -63.5 c 128,-1,18
 698 -79 698 -79 676 -79 c 2,19,-1
 69 -79 l 2,0,1
426 421 m 2,20,21
 404 421 404 421 388 436.5 c 128,-1,22
 372 452 372 452 372 475 c 2,23,-1
 372 707 l 1,24,-1
 86 707 l 1,25,-1
 86 -7 l 1,26,-1
 658 -7 l 1,27,-1
 658 421 l 1,28,-1
 426 421 l 2,20,21
444 493 m 1,29,-1
 610 493 l 1,30,-1
 444 660 l 1,31,-1
 444 493 l 1,29,-1
EndSplineSet
Validated: 1
EndChar

StartChar: u1F4D5
Encoding: 128213 128213 57
Width: 959
Flags: W
LayerCount: 2
Fore
SplineSet
21 96 m 0,0,1
 21 98 21 98 23.5 119.5 c 128,-1,2
 26 141 26 141 23 143 c 1,3,4
 20 153 20 153 22.5 161 c 128,-1,5
 25 169 25 169 34 179.5 c 128,-1,6
 43 190 43 190 44 192 c 0,7,8
 77 248 77 248 86 294 c 0,9,10
 87 296 87 296 86.5 310.5 c 128,-1,11
 86 325 86 325 86 327 c 0,12,13
 87 330 87 330 95.5 341.5 c 128,-1,14
 104 353 104 353 105 355 c 0,15,16
 148 430 148 430 141 474 c 1,17,18
 137 481 137 481 140.5 488.5 c 128,-1,19
 144 496 144 496 145 497.5 c 128,-1,20
 146 499 146 499 154 507 c 0,21,22
 174 526 174 526 190 567 c 1,23,24
 204 600 204 600 205 621 c 0,25,26
 205 623 205 623 203 635 c 128,-1,27
 201 647 201 647 202 650 c 0,28,29
 203 655 203 655 207.5 661 c 128,-1,30
 212 667 212 667 218.5 674.5 c 128,-1,31
 225 682 225 682 227 684 c 0,32,33
 232 691 232 691 247 726 c 128,-1,34
 262 761 262 761 279 772 c 0,35,36
 293 782 293 782 326 775 c 1,37,-1
 325 774 l 1,38,39
 348 779 348 779 353 779 c 2,40,-1
 778 779 l 2,41,42
 818 779 818 779 841 748 c 128,-1,43
 864 717 864 717 852 675 c 2,44,-1
 699 169 l 2,45,46
 680 105 680 105 659 84 c 0,47,48
 639 64 639 64 587 64 c 2,49,-1
 102 64 l 2,50,51
 69 64 69 64 81 32 c 1,52,53
 94 -7 94 -7 161 -7 c 2,54,-1
 676 -7 l 2,55,56
 693 -7 693 -7 707.5 2 c 128,-1,57
 722 11 722 11 727 25 c 2,58,-1
 894 575 l 1,59,60
 899 587 899 587 897 607 c 1,61,62
 924 596 924 596 937 570 c 128,-1,63
 950 544 950 544 940 511 c 2,64,-1
 786 6 l 2,65,66
 776 -28 776 -28 744.5 -53.5 c 128,-1,67
 713 -79 713 -79 675 -79 c 2,68,-1
 160 -79 l 2,69,70
 115 -79 115 -79 76 -47 c 128,-1,71
 37 -15 37 -15 22 25 c 0,72,73
 9 62 9 62 21 96 c 0,0,1
290 439 m 2,74,75
 285 421 285 421 302 421 c 2,76,-1
 641 421 l 2,77,78
 658 421 658 421 665 439 c 2,79,-1
 677 475 l 2,80,81
 679 482 679 482 675.5 487.5 c 128,-1,82
 672 493 672 493 664 493 c 2,83,-1
 325 493 l 2,84,85
 309 493 309 493 302 475 c 2,86,-1
 290 439 l 2,74,75
336 582 m 2,87,88
 331 564 331 564 348 564 c 2,89,-1
 688 564 l 2,90,91
 704 564 704 564 711 582 c 2,92,-1
 723 618 l 2,93,94
 728 636 728 636 711 636 c 2,95,-1
 371 636 l 2,96,97
 355 636 355 636 348 618 c 2,98,-1
 336 582 l 2,87,88
EndSplineSet
Validated: 33
EndChar

StartChar: u1F4E5
Encoding: 128229 128229 58
Width: 959
Flags: W
LayerCount: 2
Fore
SplineSet
33 -79 m 2,0,1
 26 -79 26 -79 20.5 -73.5 c 128,-1,2
 15 -68 15 -68 15 -61 c 2,3,-1
 15 261 l 2,4,5
 15 268 15 268 20.5 273.5 c 128,-1,6
 26 279 26 279 33 279 c 2,7,-1
 140 279 l 2,8,9
 148 279 148 279 153 273.5 c 128,-1,10
 158 268 158 268 158 261 c 2,11,-1
 158 64 l 1,12,-1
 801 64 l 1,13,-1
 801 261 l 2,14,15
 801 268 801 268 806.5 273.5 c 128,-1,16
 812 279 812 279 819 279 c 2,17,-1
 926 279 l 2,18,19
 934 279 934 279 939 273.5 c 128,-1,20
 944 268 944 268 944 261 c 2,21,-1
 944 -61 l 2,22,23
 944 -68 944 -68 939 -73.5 c 128,-1,24
 934 -79 934 -79 926 -79 c 2,25,-1
 33 -79 l 2,0,1
196 400 m 0,26,27
 204 421 204 421 229 421 c 2,28,-1
 372 421 l 1,29,-1
 372 671 l 2,30,31
 372 685 372 685 383 696 c 128,-1,32
 394 707 394 707 408 707 c 2,33,-1
 551 707 l 2,34,35
 565 707 565 707 575.5 696 c 128,-1,36
 586 685 586 685 586 671 c 2,37,-1
 586 421 l 1,38,-1
 729 421 l 2,39,40
 754 421 754 421 762 400 c 0,41,42
 771 377 771 377 754 361 c 2,43,-1
 504 111 l 2,44,45
 493 100 493 100 479 100 c 128,-1,46
 465 100 465 100 454 111 c 2,47,-1
 204 361 l 2,48,49
 187 377 187 377 196 400 c 0,26,27
EndSplineSet
Validated: 33
EndChar

StartChar: u1F517
Encoding: 128279 128279 59
Width: 941
Flags: W
LayerCount: 2
Fore
SplineSet
62 713 m 2,0,-1
 144 795 l 2,1,2
 190 841 190 841 258 841 c 128,-1,3
 326 841 326 841 372 794 c 2,4,-1
 487 678 l 2,5,6
 533 632 533 632 533 565 c 0,7,8
 533 496 533 496 484 448 c 1,9,-1
 533 399 l 1,10,11
 581 448 581 448 649 448 c 0,12,13
 716 448 716 448 763 401 c 2,14,-1
 879 285 l 2,15,16
 926 238 926 238 926 171 c 128,-1,17
 926 104 926 104 878 58 c 1,18,-1
 796 -23 l 2,19,20
 749 -70 749 -70 683 -70 c 0,21,22
 616 -70 616 -70 569 -22 c 2,23,-1
 454 93 l 2,24,25
 408 139 408 139 408 207 c 128,-1,26
 408 275 408 275 457 323 c 1,27,-1
 408 372 l 1,28,29
 360 323 360 323 292 323 c 0,30,31
 225 323 225 323 178 370 c 2,32,-1
 62 486 l 2,33,34
 15 533 15 533 15 600 c 128,-1,35
 15 667 15 667 62 713 c 2,0,-1
345 564 m 0,36,37
 356 564 356 564 366.5 559 c 128,-1,38
 377 554 377 554 381 551 c 128,-1,39
 385 548 385 548 396 536 c 2,40,-1
 408 524 l 1,41,42
 426 542 426 542 426 565 c 128,-1,43
 426 588 426 588 411 603 c 2,44,-1
 296 718 l 2,45,46
 280 734 280 734 258 734 c 128,-1,47
 236 734 236 734 220 719 c 2,48,-1
 138 637 l 2,49,50
 122 621 122 621 122 600 c 0,51,52
 122 578 122 578 138 562 c 2,53,-1
 254 446 l 2,54,55
 269 431 269 431 292 431 c 0,56,57
 316 431 316 431 332 448 c 1,58,59
 330 450 330 450 322 457 c 128,-1,60
 314 464 314 464 310 468 c 1,61,-1
 302 480 l 2,62,63
 297 487 297 487 294.5 494.5 c 128,-1,64
 292 502 292 502 292 511 c 0,65,66
 292 534 292 534 307 549 c 128,-1,67
 322 564 322 564 345 564 c 0,36,37
514 207 m 0,68,69
 514 185 514 185 530 169 c 2,70,-1
 645 53 l 2,71,72
 660 38 660 38 683 38 c 128,-1,73
 706 38 706 38 721 53 c 2,74,-1
 803 134 l 2,75,76
 819 150 819 150 819 171 c 0,77,78
 819 193 819 193 803 209 c 2,79,-1
 687 325 l 2,80,81
 671 341 671 341 649 341 c 0,82,83
 626 341 626 341 609 323 c 1,84,85
 610 322 610 322 621 312 c 128,-1,86
 632 302 632 302 635.5 297 c 128,-1,87
 639 292 639 292 644 282 c 128,-1,88
 649 272 649 272 649 261 c 0,89,90
 649 238 649 238 633.5 222.5 c 128,-1,91
 618 207 618 207 595 207 c 0,92,93
 584 207 584 207 574 212 c 128,-1,94
 564 217 564 217 559 220.5 c 128,-1,95
 554 224 554 224 544 235 c 128,-1,96
 534 246 534 246 533 247 c 1,97,98
 514 228 514 228 514 207 c 0,68,69
EndSplineSet
Validated: 1
EndChar

StartChar: K
Encoding: 75 75 60
Width: 806
Flags: W
LayerCount: 2
Fore
SplineSet
758 653 m 1,0,-1
 758 637 l 1,1,2
 723 631 723 631 683 601 c 2,3,-1
 383 375 l 1,4,-1
 557 72 l 2,5,6
 578 37 578 37 592.5 29 c 128,-1,7
 607 21 607 21 654 16 c 1,8,-1
 654 0 l 1,9,-1
 379 0 l 1,10,-1
 379 16 l 1,11,12
 399 19 399 19 408 19 c 0,13,14
 454 23 454 23 454 45 c 0,15,16
 454 75 454 75 416 140 c 2,17,-1
 295 348 l 1,18,-1
 227 99 l 2,19,20
 219 72 219 72 219 60 c 0,21,22
 219 37 219 37 231.5 29 c 128,-1,23
 244 21 244 21 291 16 c 1,24,-1
 291 0 l 1,25,-1
 43 0 l 1,26,-1
 43 16 l 1,27,28
 87 23 87 23 99.5 34 c 128,-1,29
 112 45 112 45 125 90 c 2,30,-1
 248 532 l 2,31,32
 259 571 259 571 259 594 c 0,33,34
 259 616 259 616 244 624 c 128,-1,35
 229 632 229 632 182 637 c 1,36,-1
 182 653 l 1,37,-1
 455 653 l 1,38,-1
 455 637 l 1,39,40
 411 634 411 634 387.5 617 c 128,-1,41
 364 600 364 600 354 563 c 2,42,-1
 301 369 l 1,43,-1
 453 475 l 2,44,45
 519 521 519 521 558 559 c 128,-1,46
 597 597 597 597 597 615 c 0,47,48
 597 631 597 631 563 634 c 0,49,50
 561 634 561 634 551.5 635 c 128,-1,51
 542 636 542 636 536 637 c 1,52,-1
 536 653 l 1,53,-1
 758 653 l 1,0,-1
EndSplineSet
Validated: 1
EndChar

StartChar: N
Encoding: 78 78 61
Width: 781
Flags: W
LayerCount: 2
Fore
SplineSet
264 676 m 1,0,-1
 613 247 l 1,1,-1
 613 552 l 2,2,3
 613 605 613 605 594 625.5 c 128,-1,4
 575 646 575 646 520 651 c 1,5,-1
 520 676 l 1,6,-1
 735 676 l 1,7,-1
 735 651 l 1,8,9
 686 643 686 643 671.5 628.5 c 128,-1,10
 657 614 657 614 657 571 c 2,11,-1
 657 -18 l 1,12,-1
 629 -18 l 1,13,-1
 182 526 l 1,14,-1
 182 124 l 2,15,16
 182 71 182 71 200.5 51.5 c 128,-1,17
 219 32 219 32 277 25 c 1,18,-1
 277 0 l 1,19,-1
 50 0 l 1,20,-1
 50 25 l 1,21,22
 105 32 105 32 121.5 47 c 128,-1,23
 138 62 138 62 138 105 c 2,24,-1
 138 579 l 1,25,26
 102 622 102 622 85 636.5 c 128,-1,27
 68 651 68 651 53 651 c 1,28,-1
 53 676 l 1,29,-1
 264 676 l 1,0,-1
EndSplineSet
Validated: 1
EndChar

StartChar: F
Encoding: 70 70 62
Width: 694
VWidth: 0
Flags: W
LayerCount: 2
Fore
SplineSet
694.383 91.6367 m 2,0,-1
 694.383 731.871 l 2,1,2
 694.383 822.926 694.383 822.926 603.25 822.926 c 2,3,-1
 90.7109 822.926 l 2,4,5
 -0.382812 822.926 -0.382812 822.926 -0.382812 731.871 c 2,6,-1
 -0.382812 91.6367 l 2,7,8
 -0.382812 0.582031 -0.382812 0.582031 90.7109 0.582031 c 2,9,-1
 603.25 0.582031 l 2,10,11
 694.383 0.582031 694.383 0.582031 694.383 91.6367 c 2,0,-1
646.844 91.6367 m 2,12,13
 646.844 48.082 646.844 48.082 603.25 48.082 c 2,14,-1
 90.7109 48.082 l 2,15,16
 47.1172 48.082 47.1172 48.082 47.1172 91.6367 c 2,17,-1
 47.1172 731.871 l 2,18,19
 47.1172 775.426 47.1172 775.426 90.7109 775.426 c 2,20,-1
 603.25 775.426 l 2,21,22
 646.844 775.426 646.844 775.426 646.844 731.871 c 2,23,-1
 646.844 91.6367 l 2,12,13
161.25 687.707 m 1,24,-1
 161.25 640.168 l 1,25,-1
 535 640.168 l 1,26,-1
 535 687.707 l 1,27,-1
 161.25 687.707 l 1,24,-1
159.25 545.707 m 1,28,-1
 159.25 498.168 l 1,29,-1
 533 498.168 l 1,30,-1
 533 545.707 l 1,31,-1
 159.25 545.707 l 1,28,-1
160.086 409.254 m 1,32,-1
 160.086 361.754 l 1,33,-1
 533.836 361.754 l 1,34,-1
 533.836 409.254 l 1,35,-1
 160.086 409.254 l 1,32,-1
131 231.707 m 1,36,-1
 131 115.707 l 1,37,-1
 575 115.707 l 1,38,-1
 577 231.707 l 1,39,-1
 131 231.707 l 1,36,-1
EndSplineSet
Validated: 9
EndChar

StartChar: A
Encoding: 65 65 63
Width: 969
VWidth: 0
Flags: W
LayerCount: 2
Fore
SplineSet
610.828 377.574 m 6,0,-1
 610.828 38.1992 l 6,1,2
 610.828 21.168 610.828 21.168 598.953 9.37109 c 132,-1,3
 587.078 -2.50391 587.078 -2.50391 570.125 -2.46484 c 6,4,-1
 108.602 -2.50391 l 6,5,6
 91.6875 -2.50391 91.6875 -2.50391 79.7734 9.33203 c 132,-1,7
 67.8594 21.2461 67.8594 21.2461 67.8594 38.1992 c 6,8,-1
 67.8594 608.355 l 6,9,10
 67.8594 625.309 67.8594 625.309 79.7734 637.184 c 132,-1,11
 91.6875 649.059 91.6875 649.059 108.602 649.02 c 6,12,-1
 339.344 649.059 l 6,13,14
 397.078 632.105 397.078 632.105 408.953 620.23 c 6,15,-1
 582.039 447.145 l 6,16,17
 593.875 435.348 593.875 435.348 602.43 414.918 c 132,-1,18
 610.828 394.332 610.828 394.332 610.828 377.574 c 6,0,-1
122.156 51.793 m 5,19,-1
 556.531 51.793 l 5,20,-1
 556.531 377.574 l 5,21,-1
 380.086 377.574 l 6,22,23
 363.172 377.574 363.172 377.574 351.258 389.41 c 132,-1,24
 339.344 401.363 339.344 401.363 339.344 418.316 c 6,25,-1
 339.344 594.762 l 5,26,-1
 122.195 594.762 l 5,27,-1
 122.156 51.793 l 5,19,-1
393.641 431.91 m 5,28,-1
 520.477 431.91 l 5,29,-1
 393.641 558.707 l 5,30,-1
 393.641 431.91 l 5,28,-1
901.141 229.488 m 132,-1,32
 901.141 215.777 901.141 215.777 891.492 206.051 c 6,33,-1
 641.961 -43.4805 l 5,34,-1
 595.086 -90.3555 l 6,35,36
 585.438 -99.9648 585.438 -99.9648 571.648 -100.004 c 4,37,-1
 501.336 -43.4805 l 5,38,-1
 376.57 81.2852 l 6,39,40
 366.922 118.551 366.922 118.551 376.57 128.16 c 6,41,-1
 423.406 175.035 l 6,42,43
 460.594 184.684 460.594 184.684 470.32 174.957 c 6,44,-1
 571.648 73.3555 l 5,45,-1
 797.742 299.801 l 6,46,47
 807.391 309.41 807.391 309.41 821.18 309.449 c 4,48,-1
 891.492 252.965 l 6,49,31
 901.141 243.199 901.141 243.199 901.141 229.488 c 132,-1,32
1327.76 -1446.4 m 1025,50,-1
-280.82 1225.96 m 1025,51,-1
EndSplineSet
Validated: 37
EndChar

StartChar: R
Encoding: 82 82 64
Width: 1000
VWidth: 0
LayerCount: 2
Fore
SplineSet
680.703 379.957 m 2,1,-1
 680.703 40.543 l 2,2,3
 680.703 20.7372 680.703 20.7372 660 0 c 0,4,-1
 178.477 -0.160156 l 2,5,6
 161.49 -0.165806 161.49 -0.165806 149.609 11.7148 c 128,-1,7
 137.734 23.6094 137.734 23.6094 137.734 40.543 c 2,8,-1
 137.734 610.699 l 2,9,10
 137.734 627.633 137.734 627.633 149.609 639.566 c 128,-1,11
 161.484 651.441 161.484 651.441 178.477 651.441 c 2,12,-1
 409.219 651.441 l 2,13,14
 426.172 651.441 426.172 651.441 446.562 642.887 c 128,-1,15
 466.914 634.489 466.914 634.489 478.828 622.574 c 2,16,-1
 651.914 449.488 l 2,17,18
 663.809 437.594 663.809 437.594 672.305 417.301 c 0,19,20
 680.703 396.719 680.703 396.719 680.703 379.957 c 2,1,-1
191.992 54.1367 m 1,21,-1
 626.406 54.1367 l 1,22,-1
 626.406 379.957 l 1,23,-1
 449.961 379.957 l 2,24,25
 432.969 379.957 432.969 379.957 421.094 391.832 c 0,26,-1
 409.219 597.105 l 1,27,-1
 192.031 597.105 l 1,28,-1
 191.992 54.1367 l 1,21,-1
463.477 434.254 m 1,29,-1
 590.352 434.254 l 1,30,-1
 463.477 561.051 l 1,31,-1
 463.477 434.254 l 1,29,-1
862.266 -76.2539 m 128,-1,33
 862.266 -90.043 862.266 -90.043 852.617 -99.6914 c 2,34,-1
 805.703 -146.527 l 2,35,36
 796.172 -156.176 796.172 -156.176 782.305 -156.176 c 0,37,-1
 657.461 -45.1992 l 1,38,-1
 556.133 -146.527 l 2,39,40
 546.601 -156.176 546.601 -156.176 532.695 -156.176 c 128,-1,41
 518.829 -156.176 518.829 -156.176 509.297 -146.527 c 2,42,-1
 462.383 -99.6914 l 2,43,44
 452.734 -90.043 452.734 -90.043 452.734 -76.2539 c 128,-1,45
 452.734 -62.5234 452.734 -62.5234 462.383 -52.8164 c 2,46,-1
 563.75 48.5508 l 1,47,-1
 462.383 149.879 l 2,48,49
 452.734 187.047 452.734 187.047 462.383 196.754 c 2,50,-1
 509.297 243.629 l 2,51,52
 518.906 253.24 518.906 253.24 532.695 253.355 c 128,-1,53
 546.523 253.277 546.523 253.277 556.133 243.551 c 2,54,-1
 657.461 142.301 l 1,55,-1
 758.828 243.629 l 2,56,57
 796.094 253.277 796.094 253.277 805.703 243.551 c 2,58,-1
 852.617 196.754 l 2,59,60
 862.266 187.047 862.266 187.047 862.266 173.316 c 0,61,-1
 751.25 48.5508 l 1,62,-1
 852.617 -52.8164 l 2,63,32
 862.266 -62.5234 862.266 -62.5234 862.266 -76.2539 c 128,-1,33
EndSplineSet
Validated: 37
EndChar

StartChar: M
Encoding: 77 77 65
Width: 938
Flags: W
LayerCount: 2
Fore
SplineSet
0 473 m 128,-1,1
 0 504 0 504 24 526 c 128,-1,2
 48 548 48 548 81 548 c 2,3,-1
 296 548 l 1,4,-1
 460 299 l 1,5,-1
 549 819 l 1,6,-1
 855 819 l 2,7,8
 888 819 888 819 913 796.5 c 128,-1,9
 938 774 938 774 938 742 c 128,-1,10
 938 710 938 710 913 687.5 c 128,-1,11
 888 665 888 665 855 665 c 2,12,-1
 685 665 l 1,13,-1
 549 -119 l 1,14,-1
 207 397 l 1,15,-1
 81 397 l 2,16,17
 48 397 48 397 24 419.5 c 128,-1,0
 0 442 0 442 0 473 c 128,-1,1
EndSplineSet
Validated: 1
EndChar

StartChar: I
Encoding: 73 73 66
Width: 1101
Flags: W
LayerCount: 2
Fore
SplineSet
104 -79 m 2,0,1
 67 -79 67 -79 41 -52.5 c 128,-1,2
 15 -26 15 -26 15 11 c 2,3,-1
 15 689 l 2,4,5
 15 726 15 726 41 752.5 c 128,-1,6
 67 779 67 779 104 779 c 2,7,-1
 997 779 l 2,8,9
 1034 779 1034 779 1060 752.5 c 128,-1,10
 1086 726 1086 726 1086 689 c 2,11,-1
 1086 11 l 2,12,13
 1086 -26 1086 -26 1060 -52.5 c 128,-1,14
 1034 -79 1034 -79 997 -79 c 2,15,-1
 104 -79 l 2,0,1
86 11 m 2,16,17
 86 4 86 4 91 -1.5 c 128,-1,18
 96 -7 96 -7 104 -7 c 2,19,-1
 997 -7 l 2,20,21
 1004 -7 1004 -7 1009.5 -1.5 c 128,-1,22
 1015 4 1015 4 1015 11 c 2,23,-1
 1015 689 l 2,24,25
 1015 696 1015 696 1009.5 701.5 c 128,-1,26
 1004 707 1004 707 997 707 c 2,27,-1
 104 707 l 2,28,29
 96 707 96 707 91 701.5 c 128,-1,30
 86 696 86 696 86 689 c 2,31,-1
 86 11 l 2,16,17
158 171 m 1,32,-1
 336 350 l 1,33,-1
 426 261 l 1,34,-1
 711 546 l 1,35,-1
 944 314 l 1,36,-1
 944 64 l 1,37,-1
 158 64 l 1,38,-1
 158 171 l 1,32,-1
158 529 m 128,-1,40
 158 573 158 573 189.5 604.5 c 128,-1,41
 221 636 221 636 265 636 c 128,-1,42
 309 636 309 636 340.5 604.5 c 128,-1,43
 372 573 372 573 372 529 c 128,-1,44
 372 485 372 485 340.5 453 c 128,-1,45
 309 421 309 421 265 421 c 128,-1,46
 221 421 221 421 189.5 453 c 128,-1,39
 158 485 158 485 158 529 c 128,-1,40
EndSplineSet
Validated: 1
EndChar

StartChar: uniE800
Encoding: 59392 59392 67
Width: 928
Flags: W
LayerCount: 2
Fore
SplineSet
643 386 m 128,-1,1
 643 489 643 489 570 563 c 128,-1,2
 497 637 497 637 393 636 c 128,-1,3
 289 635 289 635 216 563 c 128,-1,4
 143 491 143 491 143 386 c 128,-1,5
 143 281 143 281 216 209 c 128,-1,6
 289 137 289 137 393 136 c 128,-1,7
 497 135 497 135 570 209 c 128,-1,0
 643 283 643 283 643 386 c 128,-1,1
929 -78 m 1,8,9
 929 -107 929 -107 908 -128 c 128,-1,10
 887 -149 887 -149 858 -149 c 0,11,12
 828 -149 828 -149 808 -128 c 2,13,-1
 617 63 l 1,14,15
 517 -6 517 -6 394 -6 c 0,16,17
 314 -6 314 -6 241 25 c 128,-1,18
 168 56 168 56 115 109 c 128,-1,19
 62 162 62 162 31 235 c 128,-1,20
 0 308 0 308 0 388 c 128,-1,21
 0 468 0 468 31 541 c 128,-1,22
 62 614 62 614 115 667 c 128,-1,23
 168 720 168 720 241 751 c 128,-1,24
 314 782 314 782 394 782 c 128,-1,25
 474 782 474 782 547 751 c 128,-1,26
 620 720 620 720 673 667 c 128,-1,27
 726 614 726 614 757 541 c 128,-1,28
 788 468 788 468 788 388 c 0,29,30
 788 265 788 265 719 165 c 1,31,-1
 910 -26 l 2,32,33
 931 -47 931 -47 931 -76 c 1,34,-1
 929 -78 l 1,8,9
EndSplineSet
Validated: 33
EndChar

StartChar: uniE801
Encoding: 59393 59393 68
Width: 928
Flags: W
LayerCount: 2
Fore
SplineSet
357 171 m 256,0,1
 357 149 357 149 350 125 c 128,-1,2
 343 101 343 101 326 83 c 128,-1,3
 309 65 309 65 286 64 c 128,-1,4
 263 63 263 63 246 83 c 128,-1,5
 229 103 229 103 222 125 c 128,-1,6
 215 147 215 147 215 171 c 128,-1,7
 215 195 215 195 222 217 c 128,-1,8
 229 239 229 239 246 259 c 128,-1,9
 263 279 263 279 286 278 c 128,-1,10
 309 277 309 277 326 259 c 128,-1,11
 343 241 343 241 350 217 c 128,-1,12
 357 193 357 193 357 171 c 256,0,1
714 171 m 256,13,14
 714 149 714 149 707 125 c 128,-1,15
 700 101 700 101 683 83 c 128,-1,16
 666 65 666 65 643 64 c 128,-1,17
 620 63 620 63 603 83 c 128,-1,18
 586 103 586 103 579 125 c 128,-1,19
 572 147 572 147 572 171 c 128,-1,20
 572 195 572 195 579 217 c 128,-1,21
 586 239 586 239 603 259 c 128,-1,22
 620 279 620 279 643 278 c 128,-1,23
 666 277 666 277 683 259 c 128,-1,24
 700 241 700 241 707 217 c 128,-1,25
 714 193 714 193 714 171 c 256,13,14
803 171 m 1,26,27
 803 238 803 238 764 285 c 128,-1,28
 725 332 725 332 660 332 c 0,29,30
 637 332 637 332 551 320 c 0,31,32
 511 314 511 314 463 314 c 128,-1,33
 415 314 415 314 375 320 c 0,34,35
 290 332 290 332 266 332 c 0,36,37
 200 332 200 332 162 285 c 128,-1,38
 124 238 124 238 123 171 c 0,39,40
 123 122 123 122 141 85 c 128,-1,41
 159 48 159 48 186 28 c 128,-1,42
 213 8 213 8 254 -5 c 128,-1,43
 295 -18 295 -18 332 -21 c 128,-1,44
 369 -24 369 -24 415 -25 c 1,45,-1
 509 -25 l 2,46,47
 555 -25 555 -25 592 -21 c 128,-1,48
 629 -17 629 -17 670 -5 c 128,-1,49
 711 7 711 7 738 28 c 128,-1,50
 765 49 765 49 783 85 c 128,-1,51
 801 121 801 121 801 171 c 1,52,-1
 803 171 l 1,26,27
928 269 m 1,53,54
 928 153 928 153 894 84 c 0,55,56
 873 41 873 41 835 10 c 128,-1,57
 797 -21 797 -21 756 -38 c 128,-1,58
 715 -55 715 -55 661 -65 c 128,-1,59
 607 -75 607 -75 565 -77 c 128,-1,60
 523 -79 523 -79 472 -80 c 0,61,62
 428 -80 428 -80 393 -78 c 128,-1,63
 358 -76 358 -76 311 -71 c 128,-1,64
 264 -66 264 -66 226 -54 c 128,-1,65
 188 -42 188 -42 150 -25 c 128,-1,66
 112 -8 112 -8 82 20 c 128,-1,67
 52 48 52 48 34 84 c 0,68,69
 -1 153 -1 153 -1 269 c 0,70,71
 -1 401 -1 401 75 490 c 1,72,73
 60 536 60 536 60 585 c 0,74,75
 60 650 60 650 88 707 c 1,76,77
 148 707 148 707 194 685 c 128,-1,78
 240 663 240 663 299 616 c 1,79,80
 381 636 381 636 471 636 c 0,81,82
 554 636 554 636 627 618 c 1,83,84
 686 664 686 664 731 686 c 128,-1,85
 776 708 776 708 836 708 c 1,86,87
 864 651 864 651 864 586 c 0,88,89
 864 537 864 537 849 492 c 1,90,91
 925 403 925 403 925 270 c 1,92,-1
 928 269 l 1,53,54
EndSplineSet
Validated: 33
EndChar

StartChar: uniE802
Encoding: 59394 59394 69
Width: 1000
Flags: W
LayerCount: 2
Fore
SplineSet
34 178 m 2,0,1
 34 174 34 174 24 174 c 0,2,3
 18 174 18 174 14 178 c 1,4,-1
 0 248 l 1,5,-1
 14 320 l 1,6,7
 18 324 18 324 24 324 c 0,8,9
 34 324 34 324 34 320 c 2,10,-1
 50 248 l 1,11,-1
 34 178 l 2,0,1
136 140 m 1,12,13
 136 132 136 132 124 132 c 128,-1,14
 112 132 112 132 112 140 c 2,15,-1
 100 248 l 1,16,-1
 112 414 l 2,17,18
 112 422 112 422 124 422 c 128,-1,19
 136 422 136 422 136 414 c 2,20,-1
 150 248 l 1,21,-1
 136 140 l 1,12,13
238 142 m 1,22,23
 238 132 238 132 224 132 c 128,-1,24
 210 132 210 132 210 140 c 2,25,-1
 200 248 l 1,26,-1
 210 470 l 2,27,28
 210 480 210 480 224 480 c 128,-1,29
 238 480 238 480 238 470 c 2,30,-1
 250 248 l 1,31,-1
 238 142 l 1,22,23
340 142 m 2,32,33
 340 132 340 132 324 132 c 128,-1,34
 308 132 308 132 308 142 c 2,35,-1
 300 248 l 1,36,-1
 308 472 l 2,37,38
 308 482 308 482 324 482 c 128,-1,39
 340 482 340 482 340 472 c 2,40,-1
 350 248 l 1,41,-1
 340 142 l 2,32,33
442 144 m 2,42,43
 442 132 442 132 425 132 c 128,-1,44
 408 132 408 132 406 144 c 1,45,-1
 400 248 l 1,46,-1
 406 504 l 1,47,48
 410 518 410 518 424 518 c 0,49,50
 442 518 442 518 442 504 c 2,51,-1
 450 248 l 1,52,-1
 442 144 l 2,42,43
514 132 m 2,53,54
 500 132 500 132 500 146 c 2,55,-1
 500 542 l 2,56,57
 500 552 500 552 512 556 c 0,58,59
 548 570 548 570 596 570 c 0,60,61
 684 570 684 570 749 512 c 128,-1,62
 814 454 814 454 822 370 c 1,63,64
 846 380 846 380 872 380 c 0,65,66
 924 380 924 380 962 343 c 128,-1,67
 1000 306 1000 306 1000 255 c 128,-1,68
 1000 204 1000 204 962 167 c 128,-1,69
 924 130 924 130 872 130 c 2,70,-1
 514 132 l 2,53,54
EndSplineSet
Validated: 1
EndChar

StartChar: uniE803
Encoding: 59395 59395 70
Width: 1083
Flags: W
LayerCount: 2
Fore
SplineSet
0 203 m 1,0,1
 -1 266 -1 266 25 320 c 128,-1,2
 51 374 51 374 92 409 c 128,-1,3
 133 444 133 444 184 472 c 128,-1,4
 235 500 235 500 285 515 c 128,-1,5
 335 530 335 530 378 541 c 128,-1,6
 421 552 421 552 446 554 c 2,7,-1
 472 557 l 1,8,-1
 472 434 l 1,9,10
 415 430 415 430 367 414 c 128,-1,11
 319 398 319 398 289 377 c 128,-1,12
 259 356 259 356 236 331 c 128,-1,13
 213 306 213 306 201 283 c 128,-1,14
 189 260 189 260 182 240 c 128,-1,15
 175 220 175 220 174 209 c 2,16,-1
 172 197 l 2,17,18
 169 182 169 182 169 167 c 0,19,20
 169 145 169 145 176 125 c 0,21,22
 188 91 188 91 214 67 c 128,-1,23
 240 43 240 43 273 22 c 128,-1,24
 306 1 306 1 341 -11 c 2,25,-1
 405 -33 l 2,26,27
 434 -43 434 -43 452 -46 c 2,28,-1
 471 -49 l 1,29,-1
 471 -152 l 1,30,31
 374 -142 374 -142 295 -117 c 128,-1,32
 216 -92 216 -92 168 -60 c 128,-1,33
 120 -28 120 -28 85 8 c 128,-1,34
 50 44 50 44 34 79 c 128,-1,35
 18 114 18 114 9 141 c 128,-1,36
 0 168 0 168 -1 186 c 1,37,-1
 0 203 l 1,0,1
510 -150 m 1,38,-1
 510 752 l 1,39,-1
 652 850 l 1,40,-1
 652 -72 l 1,41,-1
 510 -150 l 1,38,-1
686 441 m 1,42,-1
 691 441 l 1,43,44
 729 440 729 440 768 426 c 0,45,46
 810 410 810 410 832 395 c 1,47,-1
 853 379 l 1,48,-1
 770 345 l 1,49,-1
 1083 267 l 1,50,-1
 1083 512 l 1,51,-1
 976 451 l 1,52,53
 936 494 936 494 863 520 c 128,-1,54
 790 546 790 546 737 551 c 2,55,-1
 685 556 l 1,56,-1
 685 441 l 1,57,-1
 686 441 l 1,42,-1
EndSplineSet
Validated: 41
EndChar

StartChar: uniE805
Encoding: 59397 59397 71
Width: 857
Flags: W
LayerCount: 2
Fore
SplineSet
132 61 m 1,0,-1
 261 61 l 1,1,-1
 261 448 l 1,2,-1
 132 448 l 1,3,-1
 132 61 l 1,0,-1
269 568 m 1,4,5
 268 597 268 597 249 616 c 128,-1,6
 230 635 230 635 197 635 c 128,-1,7
 164 635 164 635 144 616 c 128,-1,8
 124 597 124 597 124 568.5 c 128,-1,9
 124 540 124 540 144 520 c 128,-1,10
 164 500 164 500 196 501 c 1,11,-1
 197 501 l 2,12,13
 230 501 230 501 250 520 c 128,-1,14
 270 539 270 539 270 568 c 1,15,-1
 269 568 l 1,4,5
595 61 m 1,16,-1
 724 61 l 1,17,-1
 724 283 l 2,18,19
 724 369 724 369 683 413 c 128,-1,20
 642 457 642 457 575 457 c 0,21,22
 499 457 499 457 458 392 c 1,23,-1
 459 392 l 1,24,-1
 459 448 l 1,25,-1
 330 448 l 1,26,27
 332 411 332 411 330 61 c 1,28,-1
 459 61 l 1,29,-1
 459 278 l 2,30,31
 459 299 459 299 463 309 c 0,32,33
 471 329 471 329 488 342 c 128,-1,34
 505 355 505 355 529 356 c 1,35,36
 594 356 594 356 594 268 c 2,37,-1
 594 61 l 1,38,-1
 595 61 l 1,16,-1
856 618 m 1,39,-1
 856 82 l 2,40,41
 856 16 856 16 809 -32 c 128,-1,42
 762 -80 762 -80 695 -79 c 1,43,-1
 159 -79 l 2,44,45
 93 -79 93 -79 45 -32 c 128,-1,46
 -3 15 -3 15 -2 82 c 1,47,-1
 -2 618 l 2,48,49
 -2 684 -2 684 45 732 c 128,-1,50
 92 780 92 780 159 779 c 1,51,-1
 695 779 l 2,52,53
 761 779 761 779 809 732 c 128,-1,54
 857 685 857 685 856 618 c 1,39,-1
EndSplineSet
Validated: 37
EndChar

StartChar: uniE804
Encoding: 59396 59396 72
Width: 1000
VWidth: 0
LayerCount: 2
Fore
SplineSet
106.465 338.118 m 5,0,-1
 9.1875 339.073 l 5,1,-1
 8.71289 -118.236 l 5,2,-1
 714.352 -118.236 l 5,3,-1
 714.352 336.946 l 5,4,-1
 612.873 336.946 l 5,5,-1
 612.873 -14.5576 l 5,6,-1
 103.688 -14.5576 l 5,7,-1
 106.465 338.118 l 5,0,-1
138.352 130.433 m 5,8,-1
 138.352 24.5596 l 5,9,-1
 569.35 24.5596 l 5,10,-1
 569.35 130.433 l 5,11,-1
 138.352 130.433 l 5,8,-1
148.934 289.392 m 5,12,-1
 138.562 181.843 l 5,13,-1
 569.771 140.206 l 5,14,-1
 580.143 247.793 l 5,15,-1
 148.934 289.392 l 5,12,-1
188.643 469.535 m 5,16,-1
 159.287 365.531 l 5,17,-1
 576.188 247.884 l 5,18,-1
 605.543 351.87 l 5,19,-1
 188.643 469.535 l 5,16,-1
288.645 672.917 m 5,20,-1
 232.781 580.38 l 5,21,-1
 603.592 356.423 l 5,22,-1
 659.473 448.942 l 5,23,-1
 288.645 672.917 l 5,20,-1
495.943 864.51 m 5,24,-1
 408.07 801.583 l 5,25,-1
 660.422 449.446 l 5,26,-1
 748.242 512.376 l 5,27,-1
 495.943 864.51 l 5,24,-1
782.186 954.079 m 5,28,-1
 675.592 936.293 l 5,29,-1
 746.994 508.992 l 5,30,-1
 853.588 526.813 l 5,31,-1
 782.186 954.079 l 5,28,-1
EndSplineSet
Validated: 5
EndChar

StartChar: uniE806
Encoding: 59398 59398 73
Width: 785
Flags: W
LayerCount: 2
Fore
SplineSet
786 66 m 0,0,1
 786 -1 786 -1 745 -40 c 128,-1,2
 704 -79 704 -79 637 -79 c 2,3,-1
 149 -79 l 2,4,5
 81 -79 81 -79 41 -40 c 128,-1,6
 1 -1 1 -1 0 66 c 0,7,8
 0 96 0 96 2 124 c 128,-1,9
 4 152 4 152 10 185 c 128,-1,10
 16 218 16 218 25 246 c 128,-1,11
 34 274 34 274 49 300 c 128,-1,12
 64 326 64 326 84 345 c 128,-1,13
 104 364 104 364 132 375 c 128,-1,14
 160 386 160 386 194 386 c 0,15,16
 199 386 199 386 217 374 c 128,-1,17
 235 362 235 362 259 347 c 128,-1,18
 283 332 283 332 319 320 c 128,-1,19
 355 308 355 308 393 308 c 128,-1,20
 431 308 431 308 467 320 c 128,-1,21
 503 332 503 332 527 347 c 128,-1,22
 551 362 551 362 569 374 c 128,-1,23
 587 386 587 386 592 386 c 0,24,25
 626 386 626 386 654 375 c 128,-1,26
 682 364 682 364 702 345 c 128,-1,27
 722 326 722 326 737 300 c 128,-1,28
 752 274 752 274 761 246 c 128,-1,29
 770 218 770 218 776 185 c 128,-1,30
 782 152 782 152 784 124 c 128,-1,31
 786 96 786 96 786 66 c 0,0,1
607 564 m 256,32,33
 607 475 607 475 544 413 c 128,-1,34
 481 351 481 351 393 350 c 128,-1,35
 305 349 305 349 242 413 c 128,-1,36
 179 477 179 477 179 564 c 128,-1,37
 179 651 179 651 242 715 c 128,-1,38
 305 779 305 779 393 778 c 128,-1,39
 481 777 481 777 544 715 c 128,-1,40
 607 653 607 653 607 564 c 256,32,33
EndSplineSet
Validated: 33
EndChar

StartChar: uniE807
Encoding: 59399 59399 74
Width: 910
Flags: W
LayerCount: 2
Fore
SplineSet
0 349 m 256,0,1
 0 537 0 537 134 671 c 128,-1,2
 268 805 268 805 456 805 c 128,-1,3
 644 805 644 805 777 671 c 128,-1,4
 910 537 910 537 910 349 c 128,-1,5
 910 161 910 161 777 28 c 128,-1,6
 644 -105 644 -105 456 -105 c 128,-1,7
 268 -105 268 -105 134 28 c 128,-1,8
 0 161 0 161 0 349 c 256,0,1
119 349 m 256,9,10
 119 209 119 209 218 111 c 128,-1,11
 317 13 317 13 456 12 c 128,-1,12
 595 11 595 11 694 111 c 128,-1,13
 793 211 793 211 793 349 c 128,-1,14
 793 487 793 487 694 587 c 128,-1,15
 595 687 595 687 456 686 c 128,-1,16
 317 685 317 685 218 587 c 128,-1,17
 119 489 119 489 119 349 c 256,9,10
291 280 m 1,18,-1
 291 397 l 1,19,-1
 408 397 l 1,20,-1
 408 610 l 1,21,-1
 525 610 l 1,22,-1
 525 280 l 1,23,-1
 291 280 l 1,18,-1
EndSplineSet
Validated: 33
EndChar

StartChar: uniF0CE
Encoding: 61646 61646 75
Width: 928
Flags: W
LayerCount: 2
Fore
SplineSet
286 82 m 2,0,-1
 286 189 l 2,1,2
 286 197 286 197 281 202 c 128,-1,3
 276 207 276 207 268 207 c 2,4,-1
 89 207 l 2,5,6
 82 207 82 207 77 202 c 128,-1,7
 72 197 72 197 71 189 c 2,8,-1
 71 82 l 2,9,10
 71 74 71 74 77 69 c 128,-1,11
 83 64 83 64 89 64 c 2,12,-1
 268 64 l 2,13,14
 276 64 276 64 281 69 c 128,-1,15
 286 74 286 74 286 82 c 2,0,-1
286 296 m 2,16,-1
 286 404 l 2,17,18
 286 411 286 411 281 416 c 128,-1,19
 276 421 276 421 268 421 c 2,20,-1
 89 421 l 2,21,22
 82 421 82 421 77 416 c 128,-1,23
 72 411 72 411 71 404 c 2,24,-1
 71 296 l 2,25,26
 71 289 71 289 77 284 c 128,-1,27
 83 279 83 279 89 279 c 2,28,-1
 268 279 l 2,29,30
 276 279 276 279 281 284 c 128,-1,31
 286 289 286 289 286 296 c 2,16,-1
571 82 m 2,32,-1
 571 189 l 2,33,34
 571 197 571 197 566 202 c 128,-1,35
 561 207 561 207 554 207 c 2,36,-1
 375 207 l 2,37,38
 367 207 367 207 362 202 c 128,-1,39
 357 197 357 197 357 189 c 2,40,-1
 357 82 l 2,41,42
 357 74 357 74 362 69 c 128,-1,43
 367 64 367 64 375 64 c 2,44,-1
 554 64 l 2,45,46
 561 64 561 64 566 69 c 128,-1,47
 571 74 571 74 571 82 c 2,32,-1
286 511 m 2,48,-1
 286 618 l 2,49,50
 286 626 286 626 281 631 c 128,-1,51
 276 636 276 636 268 636 c 2,52,-1
 89 636 l 2,53,54
 82 636 82 636 77 631 c 128,-1,55
 72 626 72 626 71 618 c 2,56,-1
 71 511 l 2,57,58
 71 503 71 503 77 498 c 128,-1,59
 83 493 83 493 89 493 c 2,60,-1
 268 493 l 2,61,62
 276 493 276 493 281 498 c 128,-1,63
 286 503 286 503 286 511 c 2,48,-1
571 296 m 2,64,-1
 571 404 l 2,65,66
 571 411 571 411 566 416 c 128,-1,67
 561 421 561 421 554 421 c 2,68,-1
 375 421 l 2,69,70
 367 421 367 421 362 416 c 128,-1,71
 357 411 357 411 357 404 c 2,72,-1
 357 296 l 2,73,74
 357 289 357 289 362 284 c 128,-1,75
 367 279 367 279 375 279 c 2,76,-1
 554 279 l 2,77,78
 561 279 561 279 566 284 c 128,-1,79
 571 289 571 289 571 296 c 2,64,-1
857 82 m 2,80,-1
 857 189 l 2,81,82
 857 197 857 197 852 202 c 128,-1,83
 847 207 847 207 839 207 c 2,84,-1
 661 207 l 2,85,86
 653 207 653 207 648 202 c 128,-1,87
 643 197 643 197 643 189 c 2,88,-1
 643 82 l 2,89,90
 643 74 643 74 648 69 c 128,-1,91
 653 64 653 64 661 64 c 2,92,-1
 839 64 l 2,93,94
 847 64 847 64 852 69 c 128,-1,95
 857 74 857 74 857 82 c 2,80,-1
571 511 m 2,96,-1
 571 618 l 2,97,98
 571 626 571 626 566 631 c 128,-1,99
 561 636 561 636 554 636 c 2,100,-1
 375 636 l 2,101,102
 367 636 367 636 362 631 c 128,-1,103
 357 626 357 626 357 618 c 2,104,-1
 357 511 l 2,105,106
 357 503 357 503 362 498 c 128,-1,107
 367 493 367 493 375 493 c 2,108,-1
 554 493 l 2,109,110
 561 493 561 493 566 498 c 128,-1,111
 571 503 571 503 571 511 c 2,96,-1
857 296 m 2,112,-1
 857 404 l 2,113,114
 857 411 857 411 852 416 c 128,-1,115
 847 421 847 421 839 421 c 2,116,-1
 661 421 l 2,117,118
 653 421 653 421 648 416 c 128,-1,119
 643 411 643 411 643 404 c 2,120,-1
 643 296 l 2,121,122
 643 289 643 289 648 284 c 128,-1,123
 653 279 653 279 661 279 c 2,124,-1
 839 279 l 2,125,126
 847 279 847 279 852 284 c 128,-1,127
 857 289 857 289 857 296 c 2,112,-1
857 511 m 2,128,-1
 857 618 l 2,129,130
 857 626 857 626 852 631 c 128,-1,131
 847 636 847 636 839 636 c 2,132,-1
 661 636 l 2,133,134
 653 636 653 636 648 631 c 128,-1,135
 643 626 643 626 643 618 c 2,136,-1
 643 511 l 2,137,138
 643 503 643 503 648 498 c 128,-1,139
 653 493 653 493 661 493 c 2,140,-1
 839 493 l 2,141,142
 847 493 847 493 852 498 c 128,-1,143
 857 503 857 503 857 511 c 2,128,-1
929 689 m 2,144,-1
 929 82 l 2,145,146
 929 45 929 45 902 19 c 128,-1,147
 875 -7 875 -7 839 -7 c 2,148,-1
 89 -7 l 2,149,150
 53 -7 53 -7 26 19 c 128,-1,151
 -1 45 -1 45 0 82 c 2,152,-1
 0 689 l 2,153,154
 0 726 0 726 26 752 c 128,-1,155
 52 778 52 778 89 779 c 2,156,-1
 839 779 l 2,157,158
 876 779 876 779 902 752 c 128,-1,159
 928 725 928 725 929 689 c 2,144,-1
EndSplineSet
Validated: 2081
EndChar

StartChar: H
Encoding: 72 72 76
Width: 785
Flags: W
LayerCount: 2
Fore
SplineSet
786 439 m 2,0,-1
 786 332 l 2,1,2
 786 310 786 310 770 294 c 128,-1,3
 754 278 754 278 732 279 c 2,4,-1
 54 279 l 2,5,6
 31 279 31 279 16 294 c 128,-1,7
 1 309 1 309 0 332 c 2,8,-1
 0 439 l 2,9,10
 0 462 0 462 16 477 c 128,-1,11
 32 492 32 492 54 493 c 2,12,-1
 732 493 l 2,13,14
 755 493 755 493 770 477 c 128,-1,15
 785 461 785 461 786 439 c 2,0,-1
EndSplineSet
EndChar
